<?xml version="1.0" encoding="UTF-8"?>
<svg width="669px" height="575px" viewBox="0 0 669 575" version="1.1" xmlns="http://www.w3.org/2000/svg" xmlns:xlink="http://www.w3.org/1999/xlink">
    <title>Group 4</title>
    <g id="Page-1" stroke="none" stroke-width="1" fill="none" fill-rule="evenodd">
        <g id="Group-4" transform="translate(-0.000000, 0.000000)" fill-rule="nonzero">
            <g id="Group-2">
                <path d="M106.008225,322.575791 C115.074891,332.603791 123.448224,343.045124 130.928224,353.98779 C131.781557,355.374457 132.808224,356.713124 133.688224,358.086457 C134.594891,359.45579 135.448224,360.830457 136.234891,362.20379 C137.87489,364.92379 139.381557,367.565123 140.368224,370.169123 C140.608224,370.822457 140.861557,371.457123 141.101557,372.074457 C141.328224,372.697123 141.528224,373.314457 141.701557,373.926457 C142.03489,375.14779 142.23489,376.346456 142.301557,377.509123 C142.368224,378.669123 142.248224,379.80779 142.03489,380.878456 C141.808224,381.942456 141.421557,382.96379 140.848224,383.933123 C138.781557,387.358456 135.141557,388.414456 130.648224,387.786456 C128.368224,387.48779 126.061557,386.682456 123.554891,385.610456 C122.314891,385.069123 121.048224,384.449123 119.781558,383.766456 C118.501558,383.085123 117.194891,382.350456 115.994891,381.525123 C104.528225,374.214457 94.5415582,362.557124 87.6482251,348.351791 C80.9815586,334.619791 75.4215587,320.002458 71.1415588,304.709125 L68.1548922,293.122459 L65.661559,281.295792 L63.7148923,269.282459 C63.341559,267.255793 63.1682257,265.242459 62.9282257,263.202459 L62.261559,257.082459 C59.2615591,291.815792 62.7682257,327.123791 72.3948921,360.510457 C82.9015585,371.26779 94.0082249,380.702456 105.434891,388.789123 C116.888224,396.859789 128.754891,403.533122 140.661557,408.891789 C152.75489,414.343789 164.421556,420.471789 175.448223,427.430455 C176.83489,428.293122 178.181556,429.189122 179.501556,430.111788 C180.861556,430.978455 182.194889,431.862455 183.461556,432.779788 C184.728223,433.686455 185.914889,434.653122 187.048223,435.587788 C188.221556,436.494455 189.301556,437.430455 190.274889,438.393122 C191.248222,439.354455 192.114889,440.346455 192.861556,441.363788 C193.634889,442.342455 194.301556,443.330455 194.808222,444.359788 C195.821556,446.414455 196.234889,448.594455 195.874889,450.881121 C195.261556,454.886455 192.301556,457.362454 187.994889,458.550454 C183.714889,459.733121 177.928223,459.795788 172.181556,458.811788 C158.928223,456.778454 145.328224,450.227788 133.621557,440.053122 C121.568224,429.613122 110.274891,417.777122 100.008225,404.669122 C89.7148917,391.574456 80.5948919,377.145123 72.7282254,361.682457 C77.9682253,379.798456 85.2082251,397.261123 93.9815582,413.830456 C96.0882249,418.019789 98.5148915,422.027789 100.861558,426.079789 C102.008225,428.126455 103.288225,430.075788 104.554891,432.049122 L108.328225,437.959788 C113.621558,445.647788 119.061558,453.246455 125.074891,460.363788 C146.968224,480.191787 171.51489,495.77312 197.168222,506.61712 C212.914889,513.223786 228.354888,520.26112 243.528221,528.106453 C245.408221,529.095786 247.328221,529.998453 249.181554,531.007786 C251.061554,531.986453 252.874888,533.058453 254.648221,534.059786 C258.221554,535.987786 261.514887,538.095786 264.301554,540.231786 C269.928221,544.295786 273.48822,548.887786 272.541554,553.765119 C271.701554,558.070452 267.408221,560.546452 261.128221,561.758452 C260.341554,561.909119 259.528221,562.042452 258.688221,562.155785 C257.861554,562.251785 256.994888,562.301119 256.114888,562.347785 C254.354888,562.431785 252.501554,562.443785 250.568221,562.393119 C248.661554,562.319785 246.648221,562.282452 244.661554,562.015785 C242.648221,561.771785 240.621555,561.474452 238.568221,561.137119 C229.221555,559.639785 219.994888,556.638452 211.128222,552.742452 C208.928222,551.746452 206.768222,550.617119 204.621555,549.497119 L201.421556,547.770452 C200.354889,547.191786 199.314889,546.594452 198.288222,545.930452 C196.234889,544.634452 194.208222,543.302452 192.221556,541.939786 C191.221556,541.254452 190.234889,540.575786 189.261556,539.865119 L186.408223,537.623786 C160.821557,517.39712 139.208224,493.054454 122.434891,466.345121 C120.474891,463.957121 118.448224,461.631788 116.554891,459.190454 L110.941558,451.821121 C109.101558,449.343788 107.381558,446.766455 105.594891,444.242455 C104.728225,442.962455 103.781558,441.733122 102.981558,440.411788 L100.474891,436.497122 C98.8082248,433.882455 97.1015582,431.298455 95.5948915,428.587789 C94.0482249,425.899789 92.4348916,423.242455 90.9415583,420.525122 L86.5948918,412.282456 C85.8482251,410.921122 85.2082251,409.503789 84.5282252,408.101122 L82.5282252,403.887789 C91.3148916,437.325122 106.528225,470.143787 127.768224,499.802453 C138.39489,514.623786 148.31489,529.594453 156.501557,544.511786 C158.27489,547.781119 160.008223,550.975785 161.421557,554.094452 C162.848223,557.199785 163.968223,560.189119 164.67489,562.761119 C166.03489,567.963785 165.448223,572.023785 161.128223,573.490452 C156.19489,575.225118 149.341557,572.601118 141.91489,567.770452 C138.288224,565.238452 134.501557,562.187785 130.821557,558.779785 C129.008224,557.025119 127.221557,555.199785 125.461557,553.335785 C124.581557,552.397119 123.714891,551.455785 122.834891,550.514452 C121.968224,549.574452 121.128224,548.611786 120.328224,547.611786 C107.088225,531.905119 97.9682248,514.390453 93.0082249,497.454453 C88.1682251,480.982454 84.8748918,464.481121 82.9148919,448.327788 C80.9815586,432.155788 80.3815586,416.318455 81.1415586,400.963789 C66.7682256,369.34779 58.2882258,334.887791 56.0748925,300.029125 C52.3015593,332.323791 53.9682259,366.374457 61.7148924,400.019789 C65.821559,417.949122 69.2615589,435.694455 71.0615588,452.719788 C71.4748921,456.425121 71.7682255,460.113121 71.8615588,463.558454 C72.0215588,466.962454 71.9948921,470.098454 71.6082255,472.785121 C70.8482255,478.139787 68.7415589,481.635787 64.2482257,481.205121 C61.7015591,480.959787 59.0748925,479.575787 56.4348925,477.334454 C55.0882259,476.229121 53.8482259,474.837121 52.5815593,473.291787 C51.3148926,471.739787 50.0615593,470.011787 48.8348927,468.141121 C43.9415595,460.646454 39.7415596,450.706455 36.6615597,440.871788 C30.4482265,421.074455 28.7415599,401.254456 30.6882265,383.674456 C32.5415598,367.03179 35.5682264,351.033124 39.7948929,335.814458 C44.0882262,320.589125 49.448226,306.189125 55.6615592,292.735792 C55.5948925,288.549125 55.4348925,284.349125 55.4482259,280.149126 L55.7548925,267.549126 C55.9815592,263.362459 56.3415592,259.175793 56.6348925,254.989126 C56.7282258,253.935793 56.7548925,252.88246 56.8882258,251.84246 L57.2748925,248.72246 L58.0348925,242.469127 C60.2748924,225.829127 63.9148923,209.389127 68.9548922,193.429128 L67.6082256,195.922461 C67.1548923,196.762461 66.7015589,197.602461 66.3148923,198.455794 L63.8482257,203.575794 L61.3815591,208.749127 L60.7682257,210.055794 L60.2082258,211.375794 L59.1015591,214.015794 L56.8748925,219.335794 L55.7548925,222.015794 L55.2082259,223.36246 L54.7148926,224.709127 L50.7548927,235.68246 C45.8348928,250.469126 41.9682262,265.869126 39.1815596,281.709126 C38.514893,286.229125 37.674893,290.709125 36.754893,295.162459 C35.9815597,299.602458 35.0882264,304.002458 34.0482264,308.362458 C33.1682264,312.709125 32.1682265,317.002458 31.0348932,321.242458 C29.9548932,325.466458 28.9015599,329.617124 27.6348932,333.701124 C26.4748933,337.283791 25.4748933,340.758457 24.2748933,343.945124 C23.0882267,347.126457 21.8082267,350.005124 20.3948934,352.310457 C17.6882268,356.89579 14.4748936,359.226457 10.448227,357.001124 C8.14156039,355.746457 6.34156044,353.37979 4.82156048,350.230457 C4.0615605,348.654457 3.39489385,346.881124 2.79489386,344.949124 C2.50156053,343.983791 2.22156054,342.977124 1.95489388,341.937124 C1.71489389,340.893124 1.51489389,339.810457 1.32822723,338.699791 C0.954893907,336.477124 0.661560581,334.134458 0.421560587,331.714458 C0.194893926,329.293124 -0.0184394022,326.797124 0.00822726375,324.243791 C-0.0184394022,321.695791 0.0215605968,319.109125 0.101560595,316.509125 C0.194893926,313.922458 0.30156059,311.322458 0.608227249,308.762458 C2.5282272,288.135792 8.42156039,269.415793 16.9682268,254.135793 L19.8348934,248.909126 C20.8482267,247.189126 21.90156,245.48246 22.94156,243.789126 C25.0082266,240.40246 27.0882266,237.069127 29.1682265,233.80246 C31.3815598,230.56246 33.6082264,227.375794 35.8215597,224.24246 C36.9415597,222.68246 38.034893,221.12246 39.1682263,219.60246 L42.7015595,215.082461 C45.0748928,212.109127 47.3682261,209.175794 49.768226,206.335794 C52.2615593,203.509127 54.7282259,200.735794 57.1815592,198.029128 C59.5815591,195.309128 62.221559,192.709128 64.7948923,190.162461 L68.6482255,186.389128 C69.9148922,185.135795 71.1815588,183.909128 72.5415588,182.722461 C77.914892,167.575795 84.7282251,153.015795 92.5948916,139.095796 C100.474891,125.202463 109.488225,111.98913 119.501558,99.6691301 C116.781558,101.82913 114.274891,104.22913 111.688224,106.562463 L107.794891,110.10913 L106.821558,111.002463 L105.901558,111.922463 L104.034891,113.78913 C101.568225,116.295796 99.0348915,118.775796 96.5948915,121.34913 L89.4348917,129.295796 C88.848225,129.962463 88.2215584,130.615796 87.6482251,131.309129 L85.9548918,133.375796 L82.5415585,137.562462 L79.1282253,141.789129 L75.8882254,146.149129 L72.6615588,150.549129 C71.5815588,152.029129 70.4615588,153.495795 69.4882255,155.029129 L63.3948923,164.242462 C53.7282259,179.535795 43.7548928,194.215794 33.0748931,207.162461 C30.7682265,210.002461 28.4082266,212.749127 26.0615599,215.162461 C25.4748933,215.775794 24.8882266,216.36246 24.3148933,216.92246 C23.7682267,217.48246 23.2082267,218.029127 22.66156,218.549127 C21.5682267,219.575794 20.4882268,220.495794 19.4215601,221.269127 C15.1815602,224.36246 11.3015603,225.175794 8.48822705,221.509127 C6.90156042,219.429127 6.03489378,216.509127 5.76822712,212.989127 C5.60822712,209.495794 6.08822711,205.415794 7.00822709,201.015794 C7.23489375,199.922461 7.48822708,198.802461 7.76822707,197.669128 C7.91489373,197.095794 8.0615604,196.522461 8.22156039,195.949128 C8.39489372,195.375794 8.58156038,194.815794 8.76822704,194.229128 C9.51489369,191.935794 10.3548937,189.589128 11.2748936,187.229128 C12.1948936,184.869128 13.1682269,182.495795 14.2082269,180.149128 C15.3282269,177.829128 16.5015602,175.522462 17.7015602,173.269128 C18.9015601,171.002462 20.1282268,168.775795 21.3682267,166.602462 C22.62156,164.415795 24.0482267,162.349129 25.4082266,160.295795 C26.7948933,158.242462 28.1948932,156.242462 29.6215599,154.295795 C30.3415598,153.322462 31.0215598,152.349129 31.7815598,151.415795 C32.5548931,150.495795 33.3148931,149.575796 34.0748931,148.669129 C37.1682263,145.055796 40.2215596,141.615796 43.4748928,138.469129 C46.7815594,135.362463 50.1148927,132.469129 53.4615593,129.802463 C54.9282259,128.602463 56.5015592,127.482463 58.0348925,126.349129 L62.661559,123.015796 C65.741559,120.815796 68.7415589,118.62913 71.9415588,116.642463 C75.0882254,114.62913 78.2215586,112.655796 81.3148919,110.722463 C84.4748918,108.842463 87.7148917,107.082463 90.8615583,105.335797 L95.5815582,102.74913 C97.1815582,101.922463 98.8215581,101.14913 100.421558,100.362463 C103.648225,98.8024634 106.834891,97.2824635 109.994891,95.8157968 C113.274891,94.4291302 116.501558,93.0957969 119.701558,91.8024636 C121.314891,91.175797 122.874891,90.5091303 124.501557,89.9224637 L129.394891,88.215797 C149.741557,65.6424643 173.87489,46.8157981 200.181556,32.3224651 C188.154889,36.2691317 176.101556,40.9224649 164.47489,46.7757981 L160.061557,48.9224647 C158.59489,49.655798 157.181557,50.4824646 155.741557,51.255798 C152.861557,52.8291313 149.95489,54.4024645 147.07489,56.0424645 C141.488224,59.5091311 135.688224,62.8824643 130.248224,66.7757976 C115.608224,76.7891307 100.808225,86.0291304 86.1148918,93.4824636 C82.8882252,95.1091302 79.7682253,96.7091302 76.714892,97.9624635 C73.6882254,99.2424634 70.7815588,100.215797 68.2215589,100.735797 C63.1948924,101.842463 59.3415591,100.98913 58.1282258,96.4557968 C57.7948925,95.1757969 57.6615592,93.7624636 57.8215592,92.2824636 C57.9815591,90.815797 58.3682258,89.255797 58.9548925,87.615797 C60.1148924,84.3491305 62.021559,80.7491306 64.5282257,77.1091306 C67.1282256,73.5357974 70.2615588,69.8691308 73.6748921,66.2557976 C77.1682253,62.7224643 81.0348919,59.3624644 84.8482251,56.1491312 C100.501558,43.4957982 117.701558,35.2157984 134.101557,31.1357985 C137.67489,30.2691318 141.208224,29.4424652 144.71489,28.6557985 C148.301557,27.9757985 151.848223,27.3357986 155.35489,26.7224652 L160.608223,25.8424653 L165.901556,25.1891319 C169.408223,24.7624653 172.888223,24.3757986 176.31489,24.029132 C179.821556,23.789132 183.288223,23.589132 186.714889,23.4024653 L191.808222,23.1624653 L196.954889,23.149132 C200.354889,23.1624653 203.714889,23.189132 207.021555,23.2424653 C210.408222,23.429132 213.728222,23.6424653 217.021555,23.8824653 C250.101554,8.65579902 286.16822,0.522465894 322.341553,0 C324.688219,-0.0642007582 326.568219,1.22913254 326.568219,2.88246583 C326.568219,4.53579913 324.714886,5.92246576 322.434886,5.97579909 L314.048219,6.20246575 C312.648219,6.20246575 311.261553,6.37579908 309.861553,6.46913241 L305.674886,6.80246574 L301.501553,7.12246573 L299.40822,7.29579906 L297.32822,7.56246572 L289.00822,8.66913236 C286.221553,8.96246568 283.48822,9.54913233 280.72822,10.0424657 C277.981554,10.575799 275.221554,11.0424656 272.474887,11.6024656 L264.301554,13.5624656 L260.221554,14.5491322 L256.181554,15.7357988 C253.821554,18.1357988 251.501554,20.5224654 249.234888,22.8957987 C247.008221,25.3891319 244.834888,27.8957985 242.714888,30.3624651 L239.554888,34.0691317 C238.541555,35.3491317 237.541555,36.6557983 236.554888,37.9357983 C234.568221,40.5091316 232.634888,43.0557982 230.754888,45.5891314 C228.914888,48.2424647 227.141555,50.8824646 225.394888,53.4957979 L222.821555,57.4024645 L220.408222,61.4557977 C218.821555,64.149131 217.274888,66.7891309 215.781555,69.4424642 C214.341555,72.2024641 212.954889,74.922464 211.594889,77.6157973 C205.528222,90.0024637 198.768222,101.842463 191.248222,113.06913 C189.434889,115.935796 187.461556,118.642463 185.501556,121.202463 C183.621556,123.829129 181.634889,126.189129 179.594889,128.082463 C177.621556,130.082463 175.63489,131.682463 173.528223,132.615796 C172.488223,133.082463 171.421556,133.402463 170.341556,133.535796 C169.27489,133.682463 168.221556,133.682463 167.141556,133.455796 C163.31489,132.669129 161.11489,129.469129 160.168223,124.815796 C159.71489,122.522463 159.621557,119.935796 159.768223,117.10913 C159.941557,114.30913 160.301557,111.242463 160.928223,108.22913 C163.781557,94.4691302 171.048223,80.5891306 181.688223,68.8424642 C185.781556,64.109131 190.288223,59.8557977 194.728222,55.3491312 C199.381556,51.175798 203.994889,46.7491314 208.968222,42.8557982 C213.834889,38.6957983 219.021555,35.0557984 224.208222,31.2024651 C226.861555,29.3891318 229.554888,27.6557985 232.248221,25.8691319 C233.608221,24.9891319 234.941555,24.0424653 236.328221,23.2157987 L240.514888,20.7491321 C226.421555,25.7757986 212.741555,32.0024651 199.648222,39.3624649 C186.568223,46.7757981 174.128223,55.3757979 162.43489,64.9357976 C159.67489,71.3091308 157.461557,78.002464 155.288223,84.3757971 C154.248223,87.6291304 153.341557,90.935797 152.421557,94.1624636 L151.07489,98.9757968 L149.941557,103.86913 C149.221557,107.135797 148.488224,110.30913 147.861557,113.50913 C147.301557,116.775796 146.768224,119.98913 146.27489,123.162463 C145.728224,126.282463 145.408224,129.535796 145.07489,132.695796 L144.608224,137.415796 L144.39489,139.749129 C144.31489,140.522462 144.301557,141.322462 144.248224,142.109129 C144.07489,145.589129 143.808224,149.029129 143.421557,152.415795 C143.128224,155.855795 142.821557,159.322462 142.341557,162.682462 C142.221557,163.509128 142.088224,164.349128 141.968224,165.189128 C141.861557,166.042462 141.768224,166.895795 141.661557,167.762462 C141.448224,169.469128 141.208224,171.149128 140.928224,172.829128 C140.781557,173.655795 140.63489,174.482462 140.47489,175.322462 L140.248224,176.562461 L140.048224,177.829128 C139.79489,179.522461 139.501557,181.202461 139.168224,182.855795 C138.848224,184.522461 138.448224,186.149128 138.101557,187.775795 C137.781557,189.429128 137.421557,191.055794 137.021557,192.615794 C136.621557,194.189128 136.181557,195.695794 135.674891,197.135794 C135.221557,198.589128 134.781557,200.002461 134.248224,201.295794 C133.714891,202.602461 133.128224,203.802461 132.461557,204.895794 C131.821557,205.989127 131.048224,206.949127 130.341557,207.829127 C128.848224,209.562461 127.048224,210.749127 124.874891,211.215794 C121.021558,212.029127 117.794891,210.002461 115.194891,206.162461 C113.901558,204.255794 112.728224,201.882461 111.768224,199.242461 C110.874891,196.629128 110.141558,193.722461 109.541558,190.695794 C106.888225,176.962461 108.168225,161.255795 113.448224,146.175796 C122.474891,120.74913 135.488224,95.8024635 152.728223,73.2691307 C141.008224,83.8291305 130.154891,95.4557969 120.354891,107.94913 L116.768224,112.70913 L114.968224,115.082463 C114.354891,115.86913 113.754891,116.655796 113.208224,117.495796 L106.461558,127.349129 L100.181558,137.522462 C98.1548915,140.962462 96.2882249,144.495796 94.3282249,147.975796 L94.2882249,150.655795 L94.3548916,153.389129 L94.5148916,158.775795 C94.6348916,162.349129 94.7282249,165.829128 95.0882249,169.389128 C95.3948915,172.909128 95.7282249,176.375795 96.0615582,179.789128 C96.5148915,183.242461 97.0482248,186.669128 97.5548915,190.015794 C97.8348915,191.695794 98.0615581,193.349128 98.3815581,195.015794 L99.4082248,200.002461 L100.461558,204.895794 C100.834891,206.522461 101.128225,208.095794 101.594891,209.722461 C102.461558,212.935794 103.341558,216.095794 104.221558,219.20246 L104.888225,221.509127 C105.114891,222.28246 105.394891,223.055794 105.648225,223.829127 L107.208225,228.40246 C108.354891,231.64246 109.274891,234.855793 110.408225,238.149127 C111.501558,241.415793 112.368224,244.669126 113.274891,247.935793 C114.274891,251.229126 115.141558,254.509126 115.861558,257.789126 C116.021558,258.602459 116.248224,259.429126 116.461558,260.255793 C116.661558,261.082459 116.861558,261.909126 117.061558,262.735793 C117.448224,264.389126 117.794891,266.042459 118.114891,267.695793 C118.261558,268.522459 118.408224,269.349126 118.554891,270.175792 C118.741558,271.002459 118.914891,271.829126 119.074891,272.655792 C119.394891,274.295792 119.674891,275.935792 119.888224,277.535792 C119.994891,278.335792 120.088224,279.135792 120.168224,279.922459 C120.234891,280.709126 120.288224,281.482459 120.394891,282.242459 C120.554891,283.762459 120.648224,285.242459 120.634891,286.655792 C120.634891,288.082459 120.541558,289.429125 120.328224,290.709125 C120.168224,291.975792 119.954891,293.175792 119.568224,294.269125 C118.834891,296.469125 117.608224,298.309125 115.754891,299.615792 C112.501558,301.935792 108.781558,301.389125 104.968225,298.935792 C101.194891,296.482458 97.1548915,292.122459 93.9148916,287.055792 C92.008225,284.175792 90.1415583,281.082459 88.7148917,277.829126 C87.2215584,274.562459 85.7948918,271.122459 84.6348918,267.535793 C83.5815585,263.962459 82.6615585,260.255793 81.8882252,256.429126 C81.7948919,255.949126 81.6882252,255.469126 81.6082252,254.989126 L81.4082252,253.535793 C81.3015586,252.575793 81.1815586,251.60246 81.0615586,250.629126 C80.8482252,248.669126 80.6615586,246.695793 80.5148919,244.695793 C79.7015586,230.255793 80.0215586,215.495794 81.5682252,200.629128 L82.9815585,189.469128 C83.5682252,185.762461 84.2748918,182.055795 84.9282251,178.309128 L85.4348918,175.495795 L86.0748918,172.735795 L87.3415584,167.162462 C87.7815584,165.309128 88.1682251,163.415795 88.6748917,161.562462 L90.2215583,156.042462 C75.5015587,185.895795 66.0615589,218.56246 62.6882257,251.935793 C63.0082257,252.789126 63.3548923,253.64246 63.741559,254.495793 L64.8482256,257.055793 L67.0748923,262.082459 L69.2882255,267.029126 C70.0748922,268.655793 70.9282255,270.282459 71.7415588,271.882459 C73.3815588,275.082459 75.0215587,278.229126 76.674892,281.309126 C78.4615586,284.402459 80.2482253,287.415792 82.0348919,290.375792 C89.368225,302.189125 97.4215582,312.949125 106.008225,322.575791" id="path15" fill="#D3862D" transform="translate(163.284110, 287.013285) scale(-1, 1) rotate(-180.000000) translate(-163.284110, -287.013285) "></path>
                <path d="M562.83488,322.575791 C553.768213,332.603791 545.408214,343.045124 537.928214,353.98779 C537.061547,355.374457 536.048214,356.713124 535.154881,358.086457 C534.248214,359.45579 533.394881,360.830457 532.608214,362.20379 C530.981547,364.92379 529.461547,367.565123 528.474881,370.169123 C528.234881,370.822457 527.981547,371.457123 527.741547,372.074457 C527.514881,372.697123 527.314881,373.314457 527.154881,373.926457 C526.821547,375.14779 526.608214,376.346456 526.554881,377.509123 C526.488214,378.669123 526.594881,379.80779 526.821547,380.878456 C527.034881,381.942456 527.421547,382.96379 528.008214,383.933123 C530.061547,387.358456 533.701547,388.414456 538.19488,387.786456 C540.47488,387.48779 542.79488,386.682456 545.288214,385.610456 C546.528214,385.069123 547.79488,384.449123 549.07488,383.766456 C550.35488,383.085123 551.648213,382.350456 552.861547,381.525123 C564.328213,374.214457 574.31488,362.557124 581.208213,348.351791 C587.861546,334.619791 593.421546,320.002458 597.714879,304.709125 L600.688212,293.122459 L603.181546,281.295792 L605.141545,269.282459 C605.501545,267.255793 605.688212,265.242459 605.914879,263.202459 L606.594879,257.082459 C609.581545,291.815792 606.088212,327.123791 596.448212,360.510457 C585.941546,371.26779 574.848213,380.702456 563.421547,388.789123 C551.95488,396.859789 540.088214,403.533122 528.194881,408.891789 C516.088214,414.343789 504.434881,420.471789 493.394882,427.430455 C492.021548,428.293122 490.661548,429.189122 489.354882,430.111788 C487.981548,430.978455 486.648215,431.862455 485.394882,432.779788 C484.114882,433.686455 482.941549,434.653122 481.794882,435.587788 C480.621549,436.494455 479.541549,437.430455 478.568215,438.393122 C477.594882,439.354455 476.728215,440.346455 475.981549,441.363788 C475.208215,442.342455 474.554882,443.330455 474.048215,444.359788 C473.034882,446.414455 472.621549,448.594455 472.981549,450.881121 C473.581549,454.886455 476.541549,457.362454 480.848215,458.550454 C485.128215,459.733121 490.914882,459.795788 496.661548,458.811788 C509.914881,456.778454 523.528214,450.227788 535.234881,440.053122 C547.274885,429.613122 558.581547,417.777122 568.83488,404.669122 C579.128213,391.574456 588.248213,377.145123 596.114879,361.682457 C590.888212,379.798456 583.634879,397.261123 574.87488,413.830456 C572.75488,418.019789 570.341546,422.027789 567.99488,426.079789 C566.848213,428.126455 565.55488,430.075788 564.301546,432.049122 L560.528213,437.959788 C555.221547,445.647788 549.781547,453.246455 543.781547,460.363788 C521.888214,480.191787 497.341548,495.77312 471.674882,506.61712 C455.941549,513.223786 440.50155,520.26112 425.328217,528.106453 C423.434883,529.095786 421.514883,529.998453 419.66155,531.007786 C417.794883,531.986453 415.98155,533.058453 414.208217,534.059786 C410.62155,535.987786 407.328217,538.095786 404.54155,540.231786 C398.928217,544.295786 395.368217,548.887786 396.314884,553.765119 C397.154884,558.070452 401.448217,560.546452 407.714884,561.758452 C408.50155,561.909119 409.314884,562.042452 410.154884,562.155785 C410.994884,562.251785 411.848217,562.301119 412.728217,562.347785 C414.50155,562.431785 416.354884,562.443785 418.274885,562.393119 C420.194883,562.319785 422.194883,562.282452 424.194883,562.015785 C426.194883,561.771785 428.234883,561.474452 430.274885,561.137119 C439.634883,559.639785 448.861549,556.638452 457.714882,552.742452 C459.928216,551.746452 462.074882,550.617119 464.221549,549.497119 L467.421549,547.770452 C468.488216,547.191786 469.541549,546.594452 470.554882,545.930452 C472.608215,544.634452 474.634882,543.302452 476.621549,541.939786 C477.621549,541.254452 478.621549,540.575786 479.594882,539.865119 L482.434882,537.623786 C508.034881,517.39712 529.648214,493.054454 546.421547,466.345121 C548.368214,463.957121 550.39488,461.631788 552.288213,459.190454 L557.901547,451.821121 C559.741547,449.343788 561.461547,446.766455 563.248213,444.242455 C564.128213,442.962455 565.061546,441.733122 565.87488,440.411788 L568.368213,436.497122 C570.03488,433.882455 571.741546,431.298455 573.261546,428.587789 C574.808213,425.899789 576.408213,423.242455 577.901546,420.525122 L582.248213,412.282456 C583.008213,410.921122 583.648213,409.503789 584.314879,408.101122 L586.314879,403.887789 C577.541546,437.325122 562.328213,470.143787 541.088214,499.802453 C530.448214,514.623786 520.528214,529.594453 512.354881,544.511786 C510.568214,547.781119 508.834881,550.975785 507.421548,554.094452 C506.008215,557.199785 504.888215,560.189119 504.181548,562.761119 C502.808215,567.963785 503.394881,572.023785 507.728215,573.490452 C512.661548,575.225118 519.501548,572.601118 526.928214,567.770452 C530.554881,565.238452 534.341547,562.187785 538.03488,558.779785 C539.83488,557.025119 541.63488,555.199785 543.39488,553.335785 C544.261547,552.397119 545.141547,551.455785 546.008214,550.514452 C546.87488,549.574452 547.71488,548.611786 548.528214,547.611786 C561.768213,531.905119 570.87488,514.390453 575.848213,497.454453 C580.688213,480.982454 583.981546,464.481121 585.928213,448.327788 C587.861546,432.155788 588.474879,416.318455 587.714879,400.963789 C602.088212,369.34779 610.568212,334.887791 612.768212,300.029125 C616.541545,332.323791 614.874879,366.374457 607.128212,400.019789 C603.034879,417.949122 599.594879,435.694455 597.794879,452.719788 C597.381546,456.425121 597.074879,460.113121 596.981546,463.558454 C596.834879,466.962454 596.861546,470.098454 597.248212,472.785121 C598.008212,478.139787 600.101546,481.635787 604.594879,481.205121 C607.141545,480.959787 609.768212,479.575787 612.408212,477.334454 C613.754879,476.229121 615.008212,474.837121 616.274885,473.291787 C617.528212,471.739787 618.781545,470.011787 620.008212,468.141121 C624.914878,460.646454 629.114878,450.706455 632.194878,440.871788 C638.408211,421.074455 640.114878,401.254456 638.154878,383.674456 C636.301545,367.03179 633.288211,351.033124 629.048212,335.814458 C624.768212,320.589125 619.394878,306.189125 613.181545,292.735792 C613.261545,288.549125 613.421545,284.349125 613.408212,280.149126 L613.101545,267.549126 C612.874879,263.362459 612.501545,259.175793 612.221545,254.989126 C612.128212,253.935793 612.088212,252.88246 611.954879,251.84246 L611.568212,248.72246 L610.808212,242.469127 C608.581545,225.829127 604.928212,209.389127 599.888212,193.429128 L601.234879,195.922461 C601.701546,196.762461 602.141546,197.602461 602.541546,198.455794 L604.994879,203.575794 L607.461545,208.749127 L608.088212,210.055794 L608.634879,211.375794 L609.754879,214.015794 L611.981545,219.335794 L613.088212,222.015794 L613.648212,223.36246 L614.141545,224.709127 L618.088212,235.68246 C623.008212,250.469126 626.874878,265.869126 629.661545,281.709126 C630.341545,286.229125 631.181545,290.709125 632.088211,295.162459 C632.861545,299.602458 633.768211,304.002458 634.794878,308.362458 C635.674878,312.709125 636.674878,317.002458 637.808211,321.242458 C638.888211,325.466458 639.941545,329.617124 641.221545,333.701124 C642.368211,337.283791 643.381545,340.758457 644.568211,343.945124 C645.754878,347.126457 647.048211,350.005124 648.448211,352.310457 C651.154878,356.89579 654.368211,359.226457 658.394877,357.001124 C660.714877,355.746457 662.501544,353.37979 664.021544,350.230457 C664.781544,348.654457 665.461544,346.881124 666.061544,344.949124 C666.354877,343.983791 666.634877,342.977124 666.888211,341.937124 C667.128211,340.893124 667.328211,339.810457 667.514877,338.699791 C667.888211,336.477124 668.194877,334.134458 668.421544,331.714458 C668.648211,329.293124 668.861544,326.797124 668.848211,324.243791 C668.874877,321.695791 668.834877,319.109125 668.741544,316.509125 C668.648211,313.922458 668.541544,311.322458 668.234877,308.762458 C666.328211,288.135792 660.421544,269.415793 651.888211,254.135793 L649.008211,248.909126 C647.994878,247.189126 646.941544,245.48246 645.914878,243.789126 C643.834878,240.40246 641.754878,237.069127 639.688211,233.80246 C637.461545,230.56246 635.234878,227.375794 633.021545,224.24246 C631.901545,222.68246 630.821545,221.12246 629.688212,219.60246 L626.154878,215.082461 C623.781545,212.109127 621.488212,209.175794 619.074878,206.335794 C616.594879,203.509127 614.114879,200.735794 611.661545,198.029128 C609.261545,195.309128 606.621545,192.709128 604.048212,190.162461 L600.208212,186.389128 C598.928212,185.135795 597.674879,183.909128 596.301546,182.722461 C590.941546,167.575795 584.114879,153.015795 576.261546,139.095796 C568.381546,125.202463 559.368213,111.98913 549.341547,99.6691301 C552.07488,101.82913 554.568213,104.22913 557.168213,106.562463 L561.048213,110.10913 L562.021547,111.002463 L562.95488,111.922463 L564.808213,113.78913 C567.274885,116.295796 569.821546,118.775796 572.261546,121.34913 L579.408213,129.295796 C580.008213,129.962463 580.621546,130.615796 581.194879,131.309129 L582.888213,133.375796 L586.301546,137.562462 L589.728213,141.789129 L592.954879,146.149129 L596.194879,150.549129 C597.274885,152.029129 598.381546,153.495795 599.368212,155.029129 L605.448212,164.242462 C615.128212,179.535795 625.101545,194.215794 635.781545,207.162461 C638.074878,210.002461 640.448211,212.749127 642.781545,215.162461 C643.368211,215.775794 643.968211,216.36246 644.528211,216.92246 C645.088211,217.48246 645.634878,218.029127 646.181544,218.549127 C647.274885,219.575794 648.368211,220.495794 649.421544,221.269127 C653.661544,224.36246 657.541544,225.175794 660.354877,221.509127 C661.954877,219.429127 662.808211,216.509127 663.088211,212.989127 C663.234877,209.495794 662.754877,205.415794 661.848211,201.015794 C661.621544,199.922461 661.354877,198.802461 661.074877,197.669128 C660.941544,197.095794 660.794877,196.522461 660.634877,195.949128 C660.448211,195.375794 660.274885,194.815794 660.088211,194.229128 C659.341544,191.935794 658.488211,189.589128 657.581544,187.229128 C656.661544,184.869128 655.688211,182.495795 654.648211,180.149128 C653.514878,177.829128 652.341544,175.522462 651.154878,173.269128 C649.954878,171.002462 648.728211,168.775795 647.474878,166.602462 C646.221544,164.415795 644.794878,162.349129 643.434878,160.295795 C642.048211,158.242462 640.648211,156.242462 639.221545,154.295795 C638.514878,153.322462 637.821545,152.349129 637.061545,151.415795 C636.301545,150.495795 635.541545,149.575796 634.768211,148.669129 C631.688211,145.055796 628.621545,141.615796 625.381545,138.469129 C622.074878,135.362463 618.728212,132.469129 615.394879,129.802463 C613.928212,128.602463 612.354879,127.482463 610.808212,126.349129 L606.181545,123.015796 C603.114879,120.815796 600.114879,118.62913 596.901546,116.642463 C593.754879,114.62913 590.634879,112.655796 587.528213,110.722463 C584.381546,108.842463 581.141546,107.082463 577.994879,105.335797 L573.261546,102.74913 C571.661546,101.922463 570.021546,101.14913 568.421546,100.362463 C565.19488,98.8024634 562.021547,97.2824635 558.848213,95.8157968 C555.581547,94.4291302 552.341547,93.0957969 549.141547,91.8024636 C547.528214,91.175797 545.968214,90.5091303 544.341547,89.9224637 L539.461547,88.215797 C519.101548,65.6424643 494.968215,46.8157981 468.661549,32.3224651 C480.688215,36.2691317 492.754882,40.9224649 504.381548,46.7757981 L508.794881,48.9224647 C510.248215,49.655798 511.661548,50.4824646 513.114881,51.255798 C515.981548,52.8291313 518.888214,54.4024645 521.768214,56.0424645 C527.368214,59.5091311 533.154881,62.8824643 538.59488,66.7757976 C553.23488,76.7891307 568.03488,86.0291304 582.728213,93.4824636 C585.954879,95.1091302 589.074879,96.7091302 592.128212,97.9624635 C595.154879,99.2424634 598.061546,100.215797 600.621546,100.735797 C605.648212,101.842463 609.514879,100.98913 610.728212,96.4557968 C611.061545,95.1757969 611.194879,93.7624636 611.021545,92.2824636 C610.861545,90.815797 610.474879,89.255797 609.901545,87.615797 C608.728212,84.3491305 606.834879,80.7491306 604.314879,77.1091306 C601.714879,73.5357974 598.581546,69.8691308 595.181546,66.2557976 C591.688212,62.7224643 587.821546,59.3624644 583.994879,56.1491312 C568.341546,43.4957982 551.141547,35.2157984 534.754881,31.1357985 C531.181547,30.2691318 527.634881,29.4424652 524.141547,28.6557985 C520.554881,27.9757985 516.994881,27.3357986 513.488214,26.7224652 L508.248215,25.8424653 L502.954881,25.1891319 C499.434881,24.7624653 495.968215,24.3757986 492.528215,24.029132 C489.021548,23.789132 485.554882,23.589132 482.141549,23.4024653 L477.034882,23.1624653 L471.901549,23.149132 C468.501549,23.1624653 465.141549,23.189132 461.821549,23.2424653 C458.448216,23.429132 455.114883,23.6424653 451.834883,23.8824653 C418.754883,8.65579902 382.674884,0.522465894 346.501552,0 C344.168219,-0.0642007582 342.274885,1.22913254 342.274885,2.88246583 C342.288219,4.53579913 344.141552,5.92246576 346.421552,5.97579909 L354.808218,6.20246575 C356.194885,6.20246575 357.594885,6.37579908 358.981552,6.46913241 L363.168218,6.80246574 L367.354885,7.12246573 L369.448218,7.29579906 L371.528218,7.56246572 L379.848218,8.66913236 C382.621551,8.96246568 385.368218,9.54913233 388.114884,10.0424657 C390.874884,10.575799 393.634884,11.0424656 396.368217,11.6024656 L404.54155,13.5624656 L408.634884,14.5491322 L412.66155,15.7357988 C415.034884,18.1357988 417.34155,20.5224654 419.608217,22.8957987 C421.834883,25.3891319 424.008217,27.8957985 426.14155,30.3624651 L429.288217,34.0691317 C430.30155,35.3491317 431.30155,36.6557983 432.30155,37.9357983 C434.274885,40.5091316 436.208216,43.0557982 438.088216,45.5891314 C439.928216,48.2424647 441.714883,50.8824646 443.448216,53.4957979 L446.021549,57.4024645 L448.434883,61.4557977 C450.021549,64.149131 451.581549,66.7891309 453.074883,69.4424642 C454.501549,72.2024641 455.901549,74.922464 457.248216,77.6157973 C463.328216,90.0024637 470.088216,101.842463 477.594882,113.06913 C479.408215,115.935796 481.381549,118.642463 483.341549,121.202463 C485.234882,123.829129 487.208215,126.189129 489.261548,128.082463 C491.234882,130.082463 493.221548,131.682463 495.314882,132.615796 C496.368215,133.082463 497.434881,133.402463 498.501548,133.535796 C499.581548,133.682463 500.621548,133.682463 501.714881,133.455796 C505.528215,132.669129 507.728215,129.469129 508.688215,124.815796 C509.141548,122.522463 509.221548,119.935796 509.074881,117.10913 C508.914881,114.30913 508.554881,111.242463 507.914881,108.22913 C505.061548,94.4691302 497.794881,80.5891306 487.168215,68.8424642 C483.074882,64.109131 478.568215,59.8557977 474.114882,55.3491312 C469.474882,51.175798 464.861549,46.7491314 459.874882,42.8557982 C455.021549,38.6957983 449.834883,35.0557984 444.634883,31.2024651 C441.994883,29.3891318 439.30155,27.6557985 436.594883,25.8691319 C435.234883,24.9891319 433.90155,24.0424653 432.514883,23.2157987 L428.34155,20.7491321 C442.42155,25.7757986 456.101549,32.0024651 469.208216,39.3624649 C482.274885,46.7757981 494.714882,55.3757979 506.408215,64.9357976 C509.168215,71.3091308 511.381548,78.002464 513.568214,84.3757971 C514.608214,87.6291304 515.514881,90.935797 516.434881,94.1624636 L517.768214,98.9757968 L518.901548,103.86913 C519.634881,107.135797 520.354881,110.30913 520.994881,113.50913 C521.554881,116.775796 522.074881,119.98913 522.581548,123.162463 C523.128214,126.282463 523.434881,129.535796 523.768214,132.695796 L524.234881,137.415796 L524.461547,139.749129 C524.528214,140.522462 524.554881,141.322462 524.594881,142.109129 C524.768214,145.589129 525.048214,149.029129 525.421547,152.415795 C525.728214,155.855795 526.034881,159.322462 526.514881,162.682462 C526.634881,163.509128 526.754881,164.349128 526.888214,165.189128 C526.981547,166.042462 527.088214,166.895795 527.181547,167.762462 C527.394881,169.469128 527.648214,171.149128 527.928214,172.829128 C528.074881,173.655795 528.221547,174.482462 528.368214,175.322462 L528.608214,176.562461 L528.794881,177.829128 C529.061547,179.522461 529.354881,181.202461 529.688214,182.855795 C530.008214,184.522461 530.408214,186.149128 530.754881,187.775795 C531.061547,189.429128 531.421547,191.055794 531.821547,192.615794 C532.221547,194.189128 532.674881,195.695794 533.168214,197.135794 C533.634881,198.589128 534.061547,200.002461 534.608214,201.295794 C535.128214,202.602461 535.728214,203.802461 536.381547,204.895794 C537.034881,205.989127 537.808214,206.949127 538.51488,207.829127 C539.99488,209.562461 541.79488,210.749127 543.981547,211.215794 C547.821547,212.029127 551.048213,210.002461 553.648213,206.162461 C554.941547,204.255794 556.128213,201.882461 557.088213,199.242461 C557.981547,196.629128 558.71488,193.722461 559.31488,190.695794 C561.95488,176.962461 560.688213,161.255795 555.39488,146.175796 C546.368214,120.74913 533.354881,95.8024635 516.114881,73.2691307 C527.848214,83.8291305 538.688214,95.4557969 548.488214,107.94913 L552.088213,112.70913 L553.888213,115.082463 C554.488213,115.86913 555.088213,116.655796 555.63488,117.495796 L562.381547,127.349129 L568.67488,137.522462 C570.701546,140.962462 572.568213,144.495796 574.528213,147.975796 L574.568213,150.655795 L574.501546,153.389129 L574.341546,158.775795 C574.208213,162.349129 574.11488,165.829128 573.75488,169.389128 C573.448213,172.909128 573.128213,176.375795 572.781546,179.789128 C572.328213,183.242461 571.79488,186.669128 571.288213,190.015794 C571.021546,191.695794 570.781546,193.349128 570.47488,195.015794 L569.43488,200.002461 L568.381546,204.895794 C568.008213,206.522461 567.728213,208.095794 567.261546,209.722461 C566.39488,212.935794 565.51488,216.095794 564.621546,219.20246 L563.968213,221.509127 C563.741547,222.28246 563.448213,223.055794 563.19488,223.829127 L561.63488,228.40246 C560.501547,231.64246 559.568213,234.855793 558.43488,238.149127 C557.35488,241.415793 556.47488,244.669126 555.568213,247.935793 C554.581547,251.229126 553.71488,254.509126 552.99488,257.789126 C552.83488,258.602459 552.59488,259.429126 552.39488,260.255793 C552.181547,261.082459 551.981547,261.909126 551.781547,262.735793 C551.39488,264.389126 551.048213,266.042459 550.741547,267.695793 C550.59488,268.522459 550.448214,269.349126 550.301547,270.175792 C550.11488,271.002459 549.941547,271.829126 549.781547,272.655792 C549.448214,274.295792 549.168214,275.935792 548.95488,277.535792 C548.848214,278.335792 548.75488,279.135792 548.688214,279.922459 C548.621547,280.709126 548.55488,281.482459 548.461547,282.242459 C548.288214,283.762459 548.208214,285.242459 548.208214,286.655792 C548.221547,288.082459 548.31488,289.429125 548.51488,290.709125 C548.67488,291.975792 548.901547,293.175792 549.274885,294.269125 C550.008214,296.469125 551.248213,298.309125 553.088213,299.615792 C556.35488,301.935792 560.061547,301.389125 563.87488,298.935792 C567.661546,296.482458 571.688213,292.122459 574.941546,287.055792 C576.848213,284.175792 578.701546,281.082459 580.141546,277.829126 C581.621546,274.562459 583.061546,271.122459 584.221546,267.535793 C585.274885,263.962459 586.181546,260.255793 586.954879,256.429126 C587.048213,255.949126 587.154879,255.469126 587.234879,254.989126 L587.434879,253.535793 C587.554879,252.575793 587.674879,251.60246 587.781546,250.629126 C588.008213,248.669126 588.181546,246.695793 588.341546,244.695793 C589.141546,230.255793 588.834879,215.495794 587.288213,200.629128 L585.861546,189.469128 C585.274885,185.762461 584.568213,182.055795 583.914879,178.309128 L583.408213,175.495795 L582.781546,172.735795 L581.501546,167.162462 C581.061546,165.309128 580.688213,163.415795 580.181546,161.562462 L578.621546,156.042462 C593.341546,185.895795 602.781546,218.56246 606.154879,251.935793 C605.848212,252.789126 605.488212,253.64246 605.114879,254.495793 L603.994879,257.055793 L601.781546,262.082459 L599.554879,267.029126 C598.781546,268.655793 597.928212,270.282459 597.114879,271.882459 C595.461546,275.082459 593.821546,278.229126 592.181546,281.309126 C590.381546,284.402459 588.594879,287.415792 586.821546,290.375792 C579.488213,302.189125 571.43488,312.949125 562.83488,322.575791" id="path16" fill="#D3862D" transform="translate(505.565603, 287.013285) scale(-1, 1) rotate(-180.000000) translate(-505.565603, -287.013285) "></path>
                <g id="logo" transform="translate(166.000000, 71.000000)">
                    <polygon id="Star" fill="#D0011B" points="170 250.412241 64.9342218 302 84.9999998 192.735373 0 115.353735 117.467111 99.4122414 170 0 222.532888 99.4122414 340 115.353735 254.999999 192.735373 275.065778 302"></polygon>
                    <path d="M115.910414,120 L223.225084,120 L223.225084,132.71167 L201.951848,132.71167 L201.951848,161.659039 L230,161.659039 L230,174.370709 L201.951848,174.370709 L201.951848,228.363844 L187.724524,228.363844 L187.724524,174.370709 L152.630459,174.370709 C151.275476,186.704805 148.56551,197.15103 144.636058,205.583524 C139.351624,216.155606 130.679731,224.336384 118.620381,230 L110.896976,218.798627 C121.87234,212.883295 129.18925,205.457666 132.983203,196.647597 C135.422172,190.354691 137.183651,182.929062 138.267637,174.370709 L109,174.370709 L109,161.659039 L139.216125,161.659039 C139.216125,160.90389 139.351624,160.2746 139.351624,159.519451 L139.351624,132.71167 L115.910414,132.71167 L115.910414,120 Z M153.714446,132.71167 L153.714446,159.519451 C153.714446,160.2746 153.578947,160.90389 153.578947,161.659039 L187.724524,161.659039 L187.724524,132.71167 L153.714446,132.71167 Z" id="开" fill="#FFFFFF"></path>
                </g>
                <path d="M244.886719,416 C245.433594,416 245.859375,415.886719 246.164063,415.660156 C246.46875,415.433594 246.644531,415.195312 246.691406,414.945312 C246.738281,414.695312 246.761719,414.359375 246.761719,413.9375 L246.761719,413.9375 L246.761719,408.851562 C246.761719,407.695312 246.121094,407.117188 244.839844,407.117188 C244.402344,407.117188 244.0625,407.140625 243.820313,407.1875 C243.578125,407.234375 243.335938,407.394531 243.09375,407.667969 C242.851563,407.941406 242.730469,408.335938 242.730469,408.851562 L242.730469,408.851562 L242.730469,412.390625 L230.917969,412.390625 L230.917969,402.617188 L236.542969,402.617188 L236.542969,403.414062 C236.542969,403.773438 236.558594,404.058594 236.589844,404.269531 C236.621094,404.480469 236.796875,404.710938 237.117188,404.960938 C237.4375,405.210938 237.902344,405.335938 238.511719,405.335938 L238.511719,405.335938 L238.746094,405.335938 C239.964844,405.335938 240.574219,404.734375 240.574219,403.53125 L240.574219,403.53125 L240.574219,398.1875 C240.574219,397.578125 240.453125,397.105469 240.210938,396.769531 C239.96875,396.433594 239.433594,396.265625 238.605469,396.265625 L238.605469,396.265625 L238.371094,396.265625 C238.042969,396.265625 237.769531,396.289062 237.550781,396.335938 C237.332031,396.382812 237.109375,396.558594 236.882813,396.863281 C236.65625,397.167969 236.542969,397.59375 236.542969,398.140625 L236.542969,398.140625 L236.542969,399.007812 L230.917969,399.007812 L230.917969,390.3125 L241.675781,390.3125 L241.675781,392.632812 C241.675781,393.039062 241.683594,393.332031 241.699219,393.511719 C241.714844,393.691406 241.785156,393.910156 241.910156,394.167969 C242.035156,394.425781 242.242188,394.601562 242.53125,394.695312 C242.820313,394.789062 243.222656,394.835938 243.738281,394.835938 L243.738281,394.835938 L243.925781,394.835938 C245.113281,394.835938 245.691406,394.257812 245.660156,393.101562 L245.660156,388.648438 C245.660156,388.257812 245.644531,387.957031 245.613281,387.746094 C245.582031,387.535156 245.421875,387.304688 245.132813,387.054688 C244.84375,386.804688 244.410156,386.679688 243.832031,386.679688 L243.832031,386.679688 L225.410156,386.679688 C224.832031,386.679688 224.382813,386.804688 224.0625,387.054688 C223.742188,387.304688 223.566406,387.539062 223.535156,387.757812 C223.503906,387.976562 223.488281,388.242188 223.488281,388.554688 C223.488281,389.054688 223.601563,389.449219 223.828125,389.738281 C224.054688,390.027344 224.292969,390.195312 224.542969,390.242188 C224.792969,390.289062 225.113281,390.3125 225.503906,390.3125 L225.503906,390.3125 L226.886719,390.3125 L226.886719,412.390625 L225.363281,412.390625 C224.113281,412.390625 223.488281,412.9375 223.488281,414.03125 C223.488281,415.34375 224.082031,416 225.269531,416 L225.269531,416 L244.886719,416 Z M257.472656,416 C258.644531,416 259.230469,415.390625 259.230469,414.171875 C259.230469,412.984375 258.613281,412.390625 257.378906,412.390625 L257.378906,412.390625 L256.980469,412.390625 L260.238281,407.304688 L263.660156,412.390625 L263.425781,412.390625 C262.816406,412.390625 262.335938,412.496094 261.984375,412.707031 C261.632813,412.917969 261.457031,413.4375 261.457031,414.265625 C261.457031,415.421875 262.027344,416 263.167969,416 L263.167969,416 L269.753906,416 C270.972656,416 271.582031,415.40625 271.582031,414.21875 C271.582031,412.96875 270.972656,412.34375 269.753906,412.34375 L269.753906,412.34375 L269.519531,412.34375 L269.425781,412.390625 L267.972656,412.390625 C267.675781,412.390625 267.449219,412.328125 267.292969,412.203125 C267.167969,412.109375 266.273438,410.949219 264.609375,408.722656 C262.945313,406.496094 262.019531,405.242188 261.832031,404.960938 L261.832031,404.960938 L266.097656,399.148438 C266.128906,399.085938 266.195313,398.984375 266.296875,398.84375 C266.398438,398.703125 266.472656,398.617188 266.519531,398.585938 C266.566406,398.554688 266.628906,398.503906 266.707031,398.433594 C266.785156,398.363281 266.871094,398.320312 266.964844,398.304688 C267.058594,398.289062 267.167969,398.28125 267.292969,398.28125 L267.292969,398.28125 L269.121094,398.28125 C270.371094,398.28125 270.980469,397.695312 270.949219,396.523438 C270.949219,395.304688 270.324219,394.695312 269.074219,394.695312 L269.074219,394.695312 L262.558594,394.695312 C261.402344,394.695312 260.824219,395.28125 260.824219,396.453125 C260.824219,397.03125 260.945313,397.480469 261.1875,397.800781 C261.429688,398.121094 261.996094,398.28125 262.886719,398.28125 L262.886719,398.28125 L260.285156,402.125 L257.519531,398.28125 L257.707031,398.28125 C258.019531,398.28125 258.289063,398.257812 258.515625,398.210938 C258.742188,398.164062 258.96875,397.996094 259.195313,397.707031 C259.421875,397.417969 259.535156,397 259.535156,396.453125 C259.535156,395.28125 258.941406,394.695312 257.753906,394.695312 L257.753906,394.695312 L251.214844,394.695312 C250.683594,394.695312 250.265625,394.820312 249.960938,395.070312 C249.65625,395.320312 249.488281,395.550781 249.457031,395.761719 C249.425781,395.972656 249.410156,396.257812 249.410156,396.617188 C249.410156,397.726562 250.050781,398.28125 251.332031,398.28125 L251.332031,398.28125 L253.675781,398.28125 L258.667969,404.960938 L258.667969,405.007812 C258.542969,405.164062 258.367188,405.402344 258.140625,405.722656 C257.914063,406.042969 257.433594,406.707031 256.699219,407.714844 C255.964844,408.722656 255.066406,409.960938 254.003906,411.429688 C253.910156,411.539062 253.800781,411.6875 253.675781,411.875 C253.550781,412.0625 253.464844,412.171875 253.417969,412.203125 C253.371094,412.234375 253.289063,412.273438 253.171875,412.320312 C253.054688,412.367188 252.902344,412.390625 252.714844,412.390625 L252.714844,412.390625 L250.980469,412.390625 C249.730469,412.390625 249.105469,412.96875 249.105469,414.125 C249.105469,415.375 249.714844,416 250.933594,416 L250.933594,416 L257.472656,416 Z M286.933594,416.1875 C288.464844,416.1875 289.824219,415.941406 291.011719,415.449219 C292.199219,414.957031 293.082031,414.351562 293.660156,413.632812 C294.238281,412.914062 294.660156,412.261719 294.925781,411.675781 C295.191406,411.089844 295.324219,410.640625 295.324219,410.328125 C295.324219,409.40625 294.652344,408.945312 293.308594,408.945312 L293.308594,408.945312 L293.121094,408.945312 C292.636719,408.945312 292.265625,409.015625 292.007813,409.15625 C291.75,409.296875 291.511719,409.65625 291.292969,410.234375 C290.683594,411.8125 289.550781,412.601562 287.894531,412.601562 C285.691406,412.601562 283.851563,411.957031 282.375,410.667969 C280.898438,409.378906 280.160156,407.585938 280.160156,405.289062 C280.160156,403.304688 280.710938,401.59375 281.8125,400.15625 C282.914063,398.71875 284.777344,398 287.402344,398 C289.011719,398 290.152344,398.078125 290.824219,398.234375 C291.074219,399.265625 291.730469,399.78125 292.792969,399.78125 C293.371094,399.78125 293.851563,399.589844 294.234375,399.207031 C294.617188,398.824219 294.808594,398.34375 294.808594,397.765625 C294.808594,397 294.574219,396.367188 294.105469,395.867188 C293.636719,395.367188 292.972656,395.023438 292.113281,394.835938 C291.253906,394.648438 290.507813,394.527344 289.875,394.472656 C289.242188,394.417969 288.449219,394.390625 287.496094,394.390625 L287.496094,394.390625 L287.167969,394.390625 C283.652344,394.390625 280.933594,395.421875 279.011719,397.484375 C277.089844,399.546875 276.128906,402.164062 276.128906,405.335938 C276.128906,408.570312 277.121094,411.1875 279.105469,413.1875 C281.089844,415.1875 283.699219,416.1875 286.933594,416.1875 Z M311.800781,416.1875 C314.457031,416.1875 316.558594,415.507812 318.105469,414.148438 C319.652344,412.789062 320.425781,411.546875 320.425781,410.421875 C320.425781,409.4375 319.816406,408.945312 318.597656,408.945312 L318.597656,408.945312 L318.457031,408.945312 C318.019531,408.945312 317.671875,408.992188 317.414063,409.085938 C317.15625,409.179688 316.988281,409.265625 316.910156,409.34375 C316.832031,409.421875 316.710938,409.625 316.546875,409.953125 C316.382813,410.28125 316.253906,410.523438 316.160156,410.679688 C315.378906,411.960938 314.222656,412.601562 312.691406,412.601562 C310.910156,412.601562 309.273438,412.191406 307.78125,411.371094 C306.289063,410.550781 305.253906,409.164062 304.675781,407.210938 L304.675781,407.210938 L318.644531,407.210938 C319.863281,407.210938 320.472656,406.65625 320.472656,405.546875 C320.472656,403.65625 320.242188,402.003906 319.78125,400.589844 C319.320313,399.175781 318.769531,398.085938 318.128906,397.320312 C317.488281,396.554688 316.710938,395.941406 315.796875,395.480469 C314.882813,395.019531 314.066406,394.722656 313.347656,394.589844 C312.628906,394.457031 311.886719,394.390625 311.121094,394.390625 C307.980469,394.390625 305.417969,395.382812 303.433594,397.367188 C301.449219,399.351562 300.457031,401.976562 300.457031,405.242188 C300.457031,408.539062 301.5,411.1875 303.585938,413.1875 C305.671875,415.1875 308.410156,416.1875 311.800781,416.1875 Z M316.347656,403.90625 L304.582031,403.90625 C304.800781,402.109375 305.488281,400.675781 306.644531,399.605469 C307.800781,398.535156 309.292969,398 311.121094,398 C314.355469,398 316.097656,399.96875 316.347656,403.90625 L316.347656,403.90625 Z M344.332031,416 C344.644531,416 344.914063,415.976562 345.140625,415.929688 C345.367188,415.882812 345.59375,415.714844 345.820313,415.425781 C346.046875,415.136719 346.160156,414.71875 346.160156,414.171875 C346.160156,412.984375 345.535156,412.390625 344.285156,412.390625 L344.285156,412.390625 L338.003906,412.390625 L338.003906,388.648438 C338.003906,387.335938 337.394531,386.679688 336.175781,386.679688 L336.175781,386.679688 L327.621094,386.679688 C326.402344,386.679688 325.792969,387.25 325.792969,388.390625 C325.792969,388.96875 325.90625,389.410156 326.132813,389.714844 C326.359375,390.019531 326.574219,390.195312 326.777344,390.242188 C326.980469,390.289062 327.261719,390.3125 327.621094,390.3125 L327.621094,390.3125 L333.972656,390.3125 L333.972656,412.390625 L327.714844,412.390625 C327.339844,412.390625 327.039063,412.417969 326.8125,412.472656 C326.585938,412.527344 326.359375,412.695312 326.132813,412.976562 C325.90625,413.257812 325.792969,413.6875 325.792969,414.265625 C325.824219,415.421875 326.433594,416 327.621094,416 L327.621094,416 L344.332031,416 Z M369.527344,416 C369.839844,416 370.109375,415.976562 370.335938,415.929688 C370.5625,415.882812 370.789063,415.714844 371.015625,415.425781 C371.242188,415.136719 371.355469,414.71875 371.355469,414.171875 C371.355469,412.984375 370.730469,412.390625 369.480469,412.390625 L369.480469,412.390625 L363.199219,412.390625 L363.199219,388.648438 C363.199219,387.335938 362.589844,386.679688 361.371094,386.679688 L361.371094,386.679688 L352.816406,386.679688 C351.597656,386.679688 350.988281,387.25 350.988281,388.390625 C350.988281,388.96875 351.101563,389.410156 351.328125,389.714844 C351.554688,390.019531 351.769531,390.195312 351.972656,390.242188 C352.175781,390.289062 352.457031,390.3125 352.816406,390.3125 L352.816406,390.3125 L359.167969,390.3125 L359.167969,412.390625 L352.910156,412.390625 C352.535156,412.390625 352.234375,412.417969 352.007813,412.472656 C351.78125,412.527344 351.554688,412.695312 351.328125,412.976562 C351.101563,413.257812 350.988281,413.6875 350.988281,414.265625 C351.019531,415.421875 351.628906,416 352.816406,416 L352.816406,416 L369.527344,416 Z M387.386719,416.1875 C390.042969,416.1875 392.144531,415.507812 393.691406,414.148438 C395.238281,412.789062 396.011719,411.546875 396.011719,410.421875 C396.011719,409.4375 395.402344,408.945312 394.183594,408.945312 L394.183594,408.945312 L394.042969,408.945312 C393.605469,408.945312 393.257813,408.992188 393,409.085938 C392.742188,409.179688 392.574219,409.265625 392.496094,409.34375 C392.417969,409.421875 392.296875,409.625 392.132813,409.953125 C391.96875,410.28125 391.839844,410.523438 391.746094,410.679688 C390.964844,411.960938 389.808594,412.601562 388.277344,412.601562 C386.496094,412.601562 384.859375,412.191406 383.367188,411.371094 C381.875,410.550781 380.839844,409.164062 380.261719,407.210938 L380.261719,407.210938 L394.230469,407.210938 C395.449219,407.210938 396.058594,406.65625 396.058594,405.546875 C396.058594,403.65625 395.828125,402.003906 395.367188,400.589844 C394.90625,399.175781 394.355469,398.085938 393.714844,397.320312 C393.074219,396.554688 392.296875,395.941406 391.382813,395.480469 C390.46875,395.019531 389.652344,394.722656 388.933594,394.589844 C388.214844,394.457031 387.472656,394.390625 386.707031,394.390625 C383.566406,394.390625 381.003906,395.382812 379.019531,397.367188 C377.035156,399.351562 376.042969,401.976562 376.042969,405.242188 C376.042969,408.539062 377.085938,411.1875 379.171875,413.1875 C381.257813,415.1875 383.996094,416.1875 387.386719,416.1875 Z M391.933594,403.90625 L380.167969,403.90625 C380.386719,402.109375 381.074219,400.675781 382.230469,399.605469 C383.386719,398.535156 384.878906,398 386.707031,398 C389.941406,398 391.683594,399.96875 391.933594,403.90625 L391.933594,403.90625 Z M409.511719,416 C410.746094,416 411.363281,415.390625 411.363281,414.171875 C411.378906,412.984375 410.761719,412.390625 409.511719,412.390625 L409.511719,412.390625 L407.285156,412.390625 L407.285156,404.914062 C407.285156,402.539062 407.878906,400.808594 409.066406,399.722656 C410.253906,398.636719 411.519531,398.09375 412.863281,398.09375 C414.144531,398.09375 414.96875,398.429688 415.335938,399.101562 C415.703125,399.773438 415.886719,400.8125 415.886719,402.21875 L415.886719,402.21875 L415.886719,412.390625 L414.550781,412.390625 C413.941406,412.390625 413.484375,412.519531 413.179688,412.777344 C412.875,413.035156 412.707031,413.257812 412.675781,413.445312 C412.644531,413.632812 412.628906,413.921875 412.628906,414.3125 C412.628906,415.4375 413.253906,416 414.503906,416 L414.503906,416 L422.167969,416 C423.355469,416 423.949219,415.390625 423.949219,414.171875 C423.949219,412.984375 423.339844,412.390625 422.121094,412.390625 L422.121094,412.390625 L419.871094,412.390625 L419.871094,402.171875 C419.871094,401.1875 419.816406,400.34375 419.707031,399.640625 C419.597656,398.9375 419.355469,398.144531 418.980469,397.261719 C418.605469,396.378906 417.964844,395.695312 417.058594,395.210938 C416.152344,394.726562 415.011719,394.484375 413.636719,394.484375 C411.261719,394.484375 409.144531,395.382812 407.285156,397.179688 L407.285156,397.179688 L407.285156,396.40625 C407.285156,395.265625 406.675781,394.695312 405.457031,394.695312 L405.457031,394.695312 L400.863281,394.695312 C399.738281,394.695312 399.175781,395.25 399.175781,396.359375 C399.175781,396.9375 399.289063,397.378906 399.515625,397.683594 C399.742188,397.988281 399.964844,398.164062 400.183594,398.210938 C400.402344,398.257812 400.707031,398.28125 401.097656,398.28125 L401.097656,398.28125 L403.253906,398.28125 L403.253906,412.390625 L403.253906,412.390625 L401.050781,412.390625 C399.800781,412.390625 399.175781,413 399.175781,414.21875 C399.175781,415.40625 399.785156,416 401.003906,416 L401.003906,416 L409.511719,416 Z M437.730469,416.1875 C440.027344,416.1875 441.945313,415.4375 443.484375,413.9375 C445.023438,412.4375 445.792969,410.773438 445.792969,408.945312 C445.777344,407.820312 445.066406,407.257812 443.660156,407.257812 C442.644531,407.257812 442.027344,407.625 441.808594,408.359375 C441.746094,408.53125 441.714844,408.792969 441.714844,409.144531 C441.714844,409.496094 441.632813,409.871094 441.46875,410.269531 C441.304688,410.667969 441.011719,411.140625 440.589844,411.6875 C439.824219,412.296875 439.089844,412.601562 438.386719,412.601562 C437.777344,412.601562 437.257813,412.503906 436.828125,412.308594 C436.398438,412.113281 436.078125,411.886719 435.867188,411.628906 C435.65625,411.371094 435.496094,411.019531 435.386719,410.574219 C435.277344,410.128906 435.214844,409.753906 435.199219,409.449219 C435.183594,409.144531 435.175781,408.734375 435.175781,408.21875 L435.175781,408.21875 L435.175781,398.28125 L443.097656,398.28125 C444.191406,398.28125 444.738281,397.695312 444.738281,396.523438 C444.738281,395.304688 444.144531,394.695312 442.957031,394.695312 L442.957031,394.695312 L435.175781,394.695312 L435.175781,390.359375 C435.175781,389.953125 435.121094,389.621094 435.011719,389.363281 C434.902344,389.105469 434.734375,388.929688 434.507813,388.835938 C434.28125,388.742188 434.09375,388.679688 433.945313,388.648438 C433.796875,388.617188 433.613281,388.601562 433.394531,388.601562 L433.394531,388.601562 L433.160156,388.601562 C432.769531,388.601562 432.464844,388.617188 432.246094,388.648438 C432.027344,388.679688 431.789063,388.835938 431.53125,389.117188 C431.273438,389.398438 431.144531,389.8125 431.144531,390.359375 L431.144531,390.359375 L431.144531,394.695312 L427.207031,394.695312 C425.988281,394.695312 425.378906,395.335938 425.378906,396.617188 C425.378906,397.726562 425.972656,398.28125 427.160156,398.28125 L427.160156,398.28125 L431.144531,398.28125 L431.144531,408.078125 C431.144531,408.875 431.191406,409.671875 431.285156,410.46875 C431.441406,411.6875 431.777344,412.714844 432.292969,413.550781 C432.808594,414.386719 433.417969,414.972656 434.121094,415.308594 C434.824219,415.644531 435.457031,415.875 436.019531,416 C436.582031,416.125 437.152344,416.1875 437.730469,416.1875 Z" id="Excellent" fill="#000000"></path>
            </g>
            <path d="M284.648438,502 C285.611979,502 286.347656,501.772135 286.855469,501.316406 C287.363281,500.860677 287.643229,500.450521 287.695313,500.085938 C287.747396,499.721354 287.773438,499.213542 287.773438,498.5625 L287.773438,498.5625 L287.773438,495.28125 C287.773438,494.317708 287.571615,493.595052 287.167969,493.113281 C286.764323,492.63151 286.380208,492.351562 286.015625,492.273438 C285.651042,492.195312 285.117188,492.15625 284.414063,492.15625 L284.414063,492.15625 L284.257813,492.15625 C283.294271,492.15625 282.519531,492.345052 281.933594,492.722656 C281.347656,493.10026 281.054688,493.953125 281.054688,495.28125 L281.054688,495.28125 L281.054688,495.984375 L264.648438,495.984375 C265.924479,494.916667 267.8125,493.373698 270.3125,491.355469 C272.8125,489.33724 274.557292,487.898438 275.546875,487.039062 C276.536458,486.179688 277.897135,484.97526 279.628906,483.425781 C281.360677,481.876302 282.565104,480.639323 283.242188,479.714844 C283.919271,478.790365 284.69401,477.644531 285.566406,476.277344 C286.438802,474.910156 287.02474,473.601562 287.324219,472.351562 C287.623698,471.101562 287.773438,469.760417 287.773438,468.328125 C287.773438,463.640625 286.067708,459.825521 282.65625,456.882812 C279.244792,453.940104 275,452.46875 269.921875,452.46875 C265.286458,452.46875 261.497396,453.842448 258.554688,456.589844 C255.611979,459.33724 254.140625,462.364583 254.140625,465.671875 C254.140625,467 254.492188,467.94401 255.195313,468.503906 C255.898438,469.063802 256.679688,469.34375 257.539063,469.34375 C258.528646,469.34375 259.303385,469.011719 259.863281,468.347656 C260.423177,467.683594 260.735677,467.14974 260.800781,466.746094 C260.865885,466.342448 260.898438,465.958333 260.898438,465.59375 C261.054688,463.796875 261.796875,462.16276 263.125,460.691406 C264.453125,459.220052 266.289063,458.484375 268.632813,458.484375 C271.835938,458.484375 274.707031,459.33724 277.246094,461.042969 C279.785156,462.748698 281.054688,465.203125 281.054688,468.40625 C281.054688,469.265625 280.983073,470.079427 280.839844,470.847656 C280.696615,471.615885 280.403646,472.429688 279.960938,473.289062 C279.518229,474.148438 279.082031,474.910156 278.652344,475.574219 C278.222656,476.238281 277.513021,477.091146 276.523438,478.132812 C275.533854,479.174479 274.654948,480.053385 273.886719,480.769531 C273.11849,481.485677 271.946615,482.507812 270.371094,483.835938 C268.795573,485.164062 267.434896,486.296875 266.289063,487.234375 C265.143229,488.171875 263.457031,489.558594 261.230469,491.394531 C259.003906,493.230469 257.096354,494.8125 255.507813,496.140625 C254.596354,496.947917 254.140625,497.9375 254.140625,499.109375 C254.192708,501.036458 255.234375,502 257.265625,502 L257.265625,502 L284.648438,502 Z M312.96875,502.625 C314.869792,502.625 316.783854,502.214844 318.710938,501.394531 C320.638021,500.574219 322.519531,499.285156 324.355469,497.527344 C326.191406,495.769531 327.682292,493.152344 328.828125,489.675781 C329.973958,486.199219 330.546875,482.143229 330.546875,477.507812 C330.546875,472.924479 329.986979,468.927083 328.867188,465.515625 C327.747396,462.104167 326.282552,459.50651 324.472656,457.722656 C322.66276,455.938802 320.800781,454.617188 318.886719,453.757812 C316.972656,452.898438 315,452.46875 312.96875,452.46875 C310.989583,452.46875 309.036458,452.885417 307.109375,453.71875 C305.182292,454.552083 303.300781,455.873698 301.464844,457.683594 C299.628906,459.49349 298.151042,462.104167 297.03125,465.515625 C295.911458,468.927083 295.351563,472.924479 295.351563,477.507812 C295.351563,482.195312 295.924479,486.264323 297.070313,489.714844 C298.216146,493.165365 299.707031,495.782552 301.542969,497.566406 C303.378906,499.35026 305.247396,500.639323 307.148438,501.433594 C309.049479,502.227865 310.989583,502.625 312.96875,502.625 Z M312.96875,496.648438 C310.182292,496.648438 307.669271,495.085938 305.429688,491.960938 C303.190104,488.835938 302.070313,483.783854 302.070313,476.804688 C302.070313,470.294271 303.196615,465.613281 305.449219,462.761719 C307.701823,459.910156 310.182292,458.484375 312.890625,458.484375 C314.0625,458.484375 315.221354,458.764323 316.367188,459.324219 C317.513021,459.884115 318.684896,460.789062 319.882813,462.039062 C321.080729,463.289062 322.03776,465.196615 322.753906,467.761719 C323.470052,470.326823 323.828125,473.341146 323.828125,476.804688 C323.828125,483.783854 322.695313,488.835938 320.429688,491.960938 C318.164063,495.085938 315.677083,496.648438 312.96875,496.648438 Z M368.632813,502 C369.596354,502 370.332031,501.772135 370.839844,501.316406 C371.347656,500.860677 371.627604,500.450521 371.679688,500.085938 C371.731771,499.721354 371.757813,499.213542 371.757813,498.5625 L371.757813,498.5625 L371.757813,495.28125 C371.757813,494.317708 371.55599,493.595052 371.152344,493.113281 C370.748698,492.63151 370.364583,492.351562 370,492.273438 C369.635417,492.195312 369.101563,492.15625 368.398438,492.15625 L368.398438,492.15625 L368.242188,492.15625 C367.278646,492.15625 366.503906,492.345052 365.917969,492.722656 C365.332031,493.10026 365.039063,493.953125 365.039063,495.28125 L365.039063,495.28125 L365.039063,495.984375 L348.632813,495.984375 C349.908854,494.916667 351.796875,493.373698 354.296875,491.355469 C356.796875,489.33724 358.541667,487.898438 359.53125,487.039062 C360.520833,486.179688 361.88151,484.97526 363.613281,483.425781 C365.345052,481.876302 366.549479,480.639323 367.226563,479.714844 C367.903646,478.790365 368.678385,477.644531 369.550781,476.277344 C370.423177,474.910156 371.009115,473.601562 371.308594,472.351562 C371.608073,471.101562 371.757813,469.760417 371.757813,468.328125 C371.757813,463.640625 370.052083,459.825521 366.640625,456.882812 C363.229167,453.940104 358.984375,452.46875 353.90625,452.46875 C349.270833,452.46875 345.481771,453.842448 342.539063,456.589844 C339.596354,459.33724 338.125,462.364583 338.125,465.671875 C338.125,467 338.476563,467.94401 339.179688,468.503906 C339.882813,469.063802 340.664063,469.34375 341.523438,469.34375 C342.513021,469.34375 343.28776,469.011719 343.847656,468.347656 C344.407552,467.683594 344.720052,467.14974 344.785156,466.746094 C344.85026,466.342448 344.882813,465.958333 344.882813,465.59375 C345.039063,463.796875 345.78125,462.16276 347.109375,460.691406 C348.4375,459.220052 350.273438,458.484375 352.617188,458.484375 C355.820313,458.484375 358.691406,459.33724 361.230469,461.042969 C363.769531,462.748698 365.039063,465.203125 365.039063,468.40625 C365.039063,469.265625 364.967448,470.079427 364.824219,470.847656 C364.68099,471.615885 364.388021,472.429688 363.945313,473.289062 C363.502604,474.148438 363.066406,474.910156 362.636719,475.574219 C362.207031,476.238281 361.497396,477.091146 360.507813,478.132812 C359.518229,479.174479 358.639323,480.053385 357.871094,480.769531 C357.102865,481.485677 355.93099,482.507812 354.355469,483.835938 C352.779948,485.164062 351.419271,486.296875 350.273438,487.234375 C349.127604,488.171875 347.441406,489.558594 345.214844,491.394531 C342.988281,493.230469 341.080729,494.8125 339.492188,496.140625 C338.580729,496.947917 338.125,497.9375 338.125,499.109375 C338.177083,501.036458 339.21875,502 341.25,502 L341.25,502 L368.632813,502 Z M397.1875,502.625 C401.302083,502.651042 404.661458,501.778646 407.265625,500.007812 C411.953125,496.804688 414.296875,492.273438 414.296875,486.414062 C414.296875,481.440104 412.825521,477.455729 409.882813,474.460938 C407.174479,471.596354 403.502604,470.164062 398.867188,470.164062 C393.997396,470.164062 389.830729,471.713542 386.367188,474.8125 C386.575521,471.765625 387.226563,469.109375 388.320313,466.84375 C389.414063,464.578125 390.748698,462.872396 392.324219,461.726562 C393.89974,460.580729 395.449219,459.753906 396.972656,459.246094 C398.496094,458.738281 400,458.484375 401.484375,458.484375 C403.854167,458.484375 405.195313,459.070312 405.507813,460.242188 C405.507813,460.502604 405.546875,460.860677 405.625,461.316406 C405.703125,461.772135 406.022135,462.332031 406.582031,462.996094 C407.141927,463.660156 407.929688,463.992188 408.945313,463.992188 C409.674479,463.992188 410.416667,463.71224 411.171875,463.152344 C411.927083,462.592448 412.304688,461.700521 412.304688,460.476562 C412.304688,458.445312 411.471354,456.602865 409.804688,454.949219 C408.138021,453.295573 405.416667,452.46875 401.640625,452.46875 C399.140625,452.46875 396.679688,452.898438 394.257813,453.757812 C391.835938,454.617188 389.479167,455.964844 387.1875,457.800781 C384.895833,459.636719 383.053385,462.292969 381.660156,465.769531 C380.266927,469.246094 379.570313,473.302083 379.570313,477.9375 C379.570313,482 379.973958,485.574219 380.78125,488.660156 C381.588542,491.746094 382.578125,494.141927 383.75,495.847656 C384.921875,497.553385 386.334635,498.953125 387.988281,500.046875 C389.641927,501.140625 391.191406,501.84375 392.636719,502.15625 C394.082031,502.46875 395.598958,502.625 397.1875,502.625 Z M397.109375,496.648438 C395.182292,496.648438 393.496094,496.205729 392.050781,495.320312 C390.605469,494.434896 389.550781,493.315104 388.886719,491.960938 C388.222656,490.606771 387.734375,489.285156 387.421875,487.996094 C387.109375,486.707031 386.953125,485.502604 386.953125,484.382812 C386.953125,482.195312 387.949219,480.27474 389.941406,478.621094 C391.933594,476.967448 394.427083,476.140625 397.421875,476.140625 C399.869792,476.140625 401.861979,476.648438 403.398438,477.664062 C406.184896,479.721354 407.578125,482.585938 407.578125,486.257812 C407.578125,489.434896 406.640625,491.934896 404.765625,493.757812 C402.8125,495.684896 400.260417,496.648438 397.109375,496.648438 Z" id="2026" fill="#000000"></path>
        </g>
    </g>
</svg>
