<?xml version="1.0" encoding="us-ascii" standalone="no"?><svg xmlns="http://www.w3.org/2000/svg" xmlns:xlink="http://www.w3.org/1999/xlink" contentStyleType="text/css" height="254px" preserveAspectRatio="none" style="width:398px;height:254px;background:#FFFFFF;" version="1.1" viewBox="0 0 398 254" width="398px" zoomAndPan="magnify"><defs/><g><!--cluster DemoService--><g id="cluster_DemoService"><rect fill="none" height="150.13" rx="2.5" ry="2.5" style="stroke:#181818;stroke-width:1.0;" width="385" x="7" y="97.99"/><text fill="#000000" font-family="sans-serif" font-size="14" font-weight="bold" lengthAdjust="spacing" textLength="92" x="153.5" y="113.5252">DemoService</text></g><!--cluster Demo--><g id="cluster_Demo"><path d="M33.5,140.99 L76.5,140.99 A3.75,3.75 0 0 1 79,143.49 L86,163.4783 L365.5,163.4783 A2.5,2.5 0 0 1 368,165.9783 L368,221.62 A2.5,2.5 0 0 1 365.5,224.12 L33.5,224.12 A2.5,2.5 0 0 1 31,221.62 L31,143.49 A2.5,2.5 0 0 1 33.5,140.99 " fill="none" style="stroke:#000000;stroke-width:1.5;"/><line style="stroke:#000000;stroke-width:1.5;" x1="31" x2="86" y1="163.4783" y2="163.4783"/><text fill="#000000" font-family="sans-serif" font-size="14" font-weight="bold" lengthAdjust="spacing" textLength="42" x="35" y="156.5252">Demo</text></g><g id="elem_CreateDemo"><ellipse cx="285.0012" cy="192.0482" fill="#F1F1F1" rx="66.8912" ry="15.7782" style="stroke:#181818;stroke-width:0.5;"/><text fill="#000000" font-family="sans-serif" font-size="14" lengthAdjust="spacing" textLength="85" x="239.5012" y="196.0658">CreateDemo</text></g><g id="elem_UpdateDemo"><ellipse cx="115.0017" cy="192.0463" fill="#F1F1F1" rx="68.3317" ry="16.0663" style="stroke:#181818;stroke-width:0.5;"/><text fill="#000000" font-family="sans-serif" font-size="14" lengthAdjust="spacing" textLength="89" x="67.7577" y="196.0097">UpdateDemo</text></g><!--entity User--><g id="elem_User"><ellipse cx="200" cy="14" fill="#F1F1F1" rx="8" ry="8" style="stroke:#181818;stroke-width:0.5;"/><path d="M200,22 L200,49 M187,30 L213,30 M200,49 L187,64 M200,49 L213,64 " fill="none" style="stroke:#181818;stroke-width:0.5;"/><text fill="#000000" font-family="sans-serif" font-size="14" lengthAdjust="spacing" textLength="31" x="184.5" y="79.0352">User</text></g><!--link User to CreateDemo--><g id="link_User_CreateDemo"><path d="M215.99,72.26 C233.88,103.06 259.1863,146.6218 273.3363,170.9818 " fill="none" id="User-to-CreateDemo" style="stroke:#181818;stroke-width:1.0;"/><polygon fill="#181818" points="276.35,176.17,275.2883,166.3785,273.8386,171.8465,268.3707,170.3968,276.35,176.17" style="stroke:#181818;stroke-width:1.0;"/></g><!--link User to UpdateDemo--><g id="link_User_UpdateDemo"><path d="M184.01,72.26 C166.22,102.89 141.1144,146.1022 126.8844,170.5922 " fill="none" id="User-to-UpdateDemo" style="stroke:#181818;stroke-width:1.0;"/><polygon fill="#181818" points="123.87,175.78,131.8501,170.0079,126.382,171.4568,124.9331,165.9887,123.87,175.78" style="stroke:#181818;stroke-width:1.0;"/></g><!--SRC=[IqmkoIzI22rEBUBYAafDBadCIyz9LN19pSqFJYqgoqnEhUPI08A2nEJin7I814G414gBKvCJYrCLd8jI4qjIGN8OKg45ASXIjLorN5mWsnHqTUsGzS7541e0]--></g></svg>