<?xml version="1.0" encoding="us-ascii" standalone="no"?>
<!--
  - Copyright [2021-present] [ahoo wang <ahoowang@qq.com> (https://github.com/Ahoo-Wang)].
  - Licensed under the Apache License, Version 2.0 (the "License");
  - you may not use this file except in compliance with the License.
  - You may obtain a copy of the License at
  -      http://www.apache.org/licenses/LICENSE-2.0
  - Unless required by applicable law or agreed to in writing, software
  - distributed under the License is distributed on an "AS IS" BASIS,
  - WITHOUT WARRANTIES OR CONDITIONS OF ANY KIND, either express or implied.
  - See the License for the specific language governing permissions and
  - limitations under the License.
  -->

<svg xmlns="http://www.w3.org/2000/svg" xmlns:xlink="http://www.w3.org/1999/xlink" contentStyleType="text/css"
     height="1102px" preserveAspectRatio="none" style="width:593px;height:1102px;background:#FFFFFF;" version="1.1"
     viewBox="0 0 593 1102" width="593px" zoomAndPan="magnify">
    <defs/>
    <g>
        <a href="https://github.com/Ahoo-Wang/Wow" target="_top" title="https://github.com/Ahoo-Wang/Wow"
           xlink:actuate="onRequest" xlink:href="https://github.com/Ahoo-Wang/Wow" xlink:show="new"
           xlink:title="https://github.com/Ahoo-Wang/Wow" xlink:type="simple">
            <text fill="#808080" font-family="sans-serif" font-size="10" lengthAdjust="spacing"
                  text-decoration="underline" textLength="183" x="397" y="19.668">https://github.com/Ahoo-Wang/Wow
            </text>
        </a>
        <text fill="#000000" font-family="sans-serif" font-size="14" font-weight="bold" lengthAdjust="spacing"
              textLength="156" x="217" y="46.3125">Command Event Flow
        </text>
        <text fill="#000000" font-family="sans-serif" font-size="14" font-weight="bold" lengthAdjust="spacing"
              text-decoration="underline" textLength="121" x="234.5" y="62.8008">Activity Diagram
        </text>
        <ellipse cx="290.5" cy="86.7539" fill="#222222" rx="10" ry="10" style="stroke:#222222;stroke-width:1.0;"/>
        <rect fill="#F1F1F1" height="34.1328" rx="12.5" ry="12.5" style="stroke:#181818;stroke-width:0.5;" width="111"
              x="235" y="116.7539"/>
        <text fill="#000000" font-family="sans-serif" font-size="12" lengthAdjust="spacing" textLength="91" x="245"
              y="138.3555">Send Command
        </text>
        <rect fill="none" height="476.3457" style="stroke:#000000;stroke-width:1.5;" width="547" x="23" y="199.8281"/>
        <path d="M128,199.8281 L128,209.3164 L118,219.3164 L23,219.3164 " fill="none"
              style="stroke:#000000;stroke-width:1.5;"/>
        <text fill="#000000" font-family="sans-serif" font-size="14" lengthAdjust="spacing" textLength="95" x="26"
              y="214.3633">CommandBus
        </text>
        <line style="stroke:#181818;stroke-width:1.5;" x1="125.5" x2="530" y1="236.3164" y2="236.3164"/>
        <rect fill="#F1F1F1" height="34.1328" rx="12.5" ry="12.5" style="stroke:#181818;stroke-width:0.5;" width="105"
              x="73" y="256.3164"/>
        <text fill="#000000" font-family="sans-serif" font-size="12" lengthAdjust="spacing" textLength="85" x="83"
              y="277.918">AggregateId-A
        </text>
        <rect fill="none" height="82.6211" style="stroke:#000000;stroke-width:1.5;" width="165" x="43" y="300.9023"/>
        <path d="M198,300.9023 L198,310.3906 L188,320.3906 L43,320.3906 " fill="none"
              style="stroke:#000000;stroke-width:1.5;"/>
        <text fill="#000000" font-family="sans-serif" font-size="14" lengthAdjust="spacing" textLength="145" x="46"
              y="315.4375">AggregateRepository
        </text>
        <rect fill="#F1F1F1" height="34.1328" rx="12.5" ry="12.5" style="stroke:#181818;stroke-width:0.5;" width="122"
              x="64.5" y="337.3906"/>
        <text fill="#000000" font-family="sans-serif" font-size="12" lengthAdjust="spacing" textLength="102" x="74.5"
              y="358.9922">load(aggregateId)
        </text>
        <rect fill="none" height="158.0293" style="stroke:#000000;stroke-width:1.5;" width="211.5" x="35" y="393.5234"/>
        <path d="M133,393.5234 L133,403.0117 L123,413.0117 L35,413.0117 " fill="none"
              style="stroke:#000000;stroke-width:1.5;"/>
        <text fill="#000000" font-family="sans-serif" font-size="14" lengthAdjust="spacing" textLength="88" x="38"
              y="408.0586">aggregate-A
        </text>
        <rect fill="#F1F1F1" height="34.1328" rx="12.5" ry="12.5" style="stroke:#181818;stroke-width:0.5;" width="158"
              x="46.5" y="430.0117"/>
        <text fill="#000000" font-family="sans-serif" font-size="12" lengthAdjust="spacing" textLength="138" x="56.5"
              y="451.6133">onCommand(command)
        </text>
        <rect fill="#F1F1F1" height="34.1328" rx="12.5" ry="12.5" style="stroke:#181818;stroke-width:0.5;" width="161"
              x="45" y="505.4199"/>
        <text fill="#000000" font-family="sans-serif" font-size="12" lengthAdjust="spacing" textLength="141" x="55"
              y="527.0215">onSourcing(eventStream)
        </text>
        <rect fill="none" height="82.6211" style="stroke:#000000;stroke-width:1.5;" width="164" x="43.5" y="561.5527"/>
        <path d="M126.5,561.5527 L126.5,571.041 L116.5,581.041 L43.5,581.041 " fill="none"
              style="stroke:#000000;stroke-width:1.5;"/>
        <text fill="#000000" font-family="sans-serif" font-size="14" lengthAdjust="spacing" textLength="73" x="46.5"
              y="576.0879">eventStore
        </text>
        <rect fill="#F1F1F1" height="34.1328" rx="12.5" ry="12.5" style="stroke:#181818;stroke-width:0.5;" width="144"
              x="53.5" y="598.041"/>
        <text fill="#000000" font-family="sans-serif" font-size="12" lengthAdjust="spacing" textLength="124" x="63.5"
              y="619.6426">append(eventStream)
        </text>
        <rect fill="#F1F1F1" height="34.1328" rx="12.5" ry="12.5" style="stroke:#181818;stroke-width:0.5;" width="104"
              x="313" y="256.3164"/>
        <text fill="#000000" font-family="sans-serif" font-size="12" lengthAdjust="spacing" textLength="84" x="323"
              y="277.918">AggregateId-B
        </text>
        <rect fill="none" height="82.6211" style="stroke:#000000;stroke-width:1.5;" width="165" x="282.5" y="300.9023"/>
        <path d="M437.5,300.9023 L437.5,310.3906 L427.5,320.3906 L282.5,320.3906 " fill="none"
              style="stroke:#000000;stroke-width:1.5;"/>
        <text fill="#000000" font-family="sans-serif" font-size="14" lengthAdjust="spacing" textLength="145" x="285.5"
              y="315.4375">AggregateRepository
        </text>
        <rect fill="#F1F1F1" height="34.1328" rx="12.5" ry="12.5" style="stroke:#181818;stroke-width:0.5;" width="122"
              x="304" y="337.3906"/>
        <text fill="#000000" font-family="sans-serif" font-size="12" lengthAdjust="spacing" textLength="102" x="314"
              y="358.9922">load(aggregateId)
        </text>
        <rect fill="none" height="158.0293" style="stroke:#000000;stroke-width:1.5;" width="211.5" x="274.5"
              y="393.5234"/>
        <path d="M370.5,393.5234 L370.5,403.0117 L360.5,413.0117 L274.5,413.0117 " fill="none"
              style="stroke:#000000;stroke-width:1.5;"/>
        <text fill="#000000" font-family="sans-serif" font-size="14" lengthAdjust="spacing" textLength="86" x="277.5"
              y="408.0586">aggregate-B
        </text>
        <rect fill="#F1F1F1" height="34.1328" rx="12.5" ry="12.5" style="stroke:#181818;stroke-width:0.5;" width="158"
              x="286" y="430.0117"/>
        <text fill="#000000" font-family="sans-serif" font-size="12" lengthAdjust="spacing" textLength="138" x="296"
              y="451.6133">onCommand(command)
        </text>
        <rect fill="#F1F1F1" height="34.1328" rx="12.5" ry="12.5" style="stroke:#181818;stroke-width:0.5;" width="161"
              x="284.5" y="505.4199"/>
        <text fill="#000000" font-family="sans-serif" font-size="12" lengthAdjust="spacing" textLength="141" x="294.5"
              y="527.0215">onSourcing(eventStream)
        </text>
        <rect fill="none" height="82.6211" style="stroke:#000000;stroke-width:1.5;" width="164" x="283" y="561.5527"/>
        <path d="M366,561.5527 L366,571.041 L356,581.041 L283,581.041 " fill="none"
              style="stroke:#000000;stroke-width:1.5;"/>
        <text fill="#000000" font-family="sans-serif" font-size="14" lengthAdjust="spacing" textLength="73" x="286"
              y="576.0879">eventStore
        </text>
        <rect fill="#F1F1F1" height="34.1328" rx="12.5" ry="12.5" style="stroke:#181818;stroke-width:0.5;" width="144"
              x="293" y="598.041"/>
        <text fill="#000000" font-family="sans-serif" font-size="12" lengthAdjust="spacing" textLength="124" x="303"
              y="619.6426">append(eventStream)
        </text>
        <rect fill="#F1F1F1" height="34.1328" rx="12.5" ry="12.5" style="stroke:#181818;stroke-width:0.5;" width="32"
              x="514" y="428.2451"/>
        <text fill="#000000" font-family="sans-serif" font-size="12" lengthAdjust="spacing" textLength="12" x="524"
              y="449.8467">...
        </text>
        <line style="stroke:#181818;stroke-width:1.5;" x1="125.5" x2="530" y1="664.1738" y2="664.1738"/>
        <rect fill="none" height="288.2539" style="stroke:#000000;stroke-width:1.5;" width="571" x="11" y="747.9941"/>
        <path d="M135,747.9941 L135,757.4824 L125,767.4824 L11,767.4824 " fill="none"
              style="stroke:#000000;stroke-width:1.5;"/>
        <text fill="#000000" font-family="sans-serif" font-size="14" lengthAdjust="spacing" textLength="114" x="14"
              y="762.5293">DomainEventBus
        </text>
        <line style="stroke:#181818;stroke-width:1.5;" x1="224.5" x2="507.5" y1="784.4824" y2="784.4824"/>
        <rect fill="#F1F1F1" height="34.1328" rx="12.5" ry="12.5" style="stroke:#181818;stroke-width:0.5;" width="105"
              x="172" y="804.4824"/>
        <text fill="#000000" font-family="sans-serif" font-size="12" lengthAdjust="spacing" textLength="85" x="182"
              y="826.084">AggregateId-A
        </text>
        <line style="stroke:#181818;stroke-width:1.5;" x1="74.5" x2="347.5" y1="873.6152" y2="873.6152"/>
        <rect fill="#F1F1F1" height="34.1328" style="stroke:#181818;stroke-width:0.5;" width="78" x="35.5"
              y="895.1152"/>
        <line style="stroke:#181818;stroke-width:0.5;" x1="40.5" x2="40.5" y1="895.1152" y2="929.248"/>
        <line style="stroke:#181818;stroke-width:0.5;" x1="108.5" x2="108.5" y1="895.1152" y2="929.248"/>
        <text fill="#000000" font-family="sans-serif" font-size="12" lengthAdjust="spacing" textLength="58" x="45.5"
              y="916.7168">projection
        </text>
        <ellipse cx="74.5" cy="974.248" fill="none" rx="10" ry="10" style="stroke:#222222;stroke-width:1.5;"/>
        <line style="stroke:#222222;stroke-width:2.5;" x1="68.3128" x2="80.6872" y1="968.0609" y2="980.4352"/>
        <line style="stroke:#222222;stroke-width:2.5;" x1="80.6872" x2="68.3128" y1="968.0609" y2="980.4352"/>
        <rect fill="#F1F1F1" height="34.1328" style="stroke:#181818;stroke-width:0.5;" width="122" x="141.5"
              y="895.1152"/>
        <line style="stroke:#181818;stroke-width:0.5;" x1="146.5" x2="146.5" y1="895.1152" y2="929.248"/>
        <line style="stroke:#181818;stroke-width:0.5;" x1="258.5" x2="258.5" y1="895.1152" y2="929.248"/>
        <text fill="#000000" font-family="sans-serif" font-size="12" lengthAdjust="spacing" textLength="102" x="151.5"
              y="916.7168">snapshot strategy
        </text>
        <ellipse cx="202.5" cy="974.248" fill="none" rx="10" ry="10" style="stroke:#222222;stroke-width:1.5;"/>
        <line style="stroke:#222222;stroke-width:2.5;" x1="196.3128" x2="208.6872" y1="968.0609" y2="980.4352"/>
        <line style="stroke:#222222;stroke-width:2.5;" x1="208.6872" x2="196.3128" y1="968.0609" y2="980.4352"/>
        <polygon fill="#F1F1F1" points="291.5,922.6152,413.5,922.6152,403.5,939.6816,413.5,956.748,291.5,956.748"
                 style="stroke:#181818;stroke-width:0.5;"/>
        <text fill="#000000" font-family="sans-serif" font-size="12" lengthAdjust="spacing" textLength="92" x="301.5"
              y="944.2168">event processor
        </text>
        <line style="stroke:#181818;stroke-width:1.5;" x1="224.5" x2="347.5" y1="1004.248" y2="1004.248"/>
        <rect fill="#F1F1F1" height="34.1328" rx="12.5" ry="12.5" style="stroke:#181818;stroke-width:0.5;" width="104"
              x="455.5" y="853.4824"/>
        <text fill="#000000" font-family="sans-serif" font-size="12" lengthAdjust="spacing" textLength="84" x="465.5"
              y="875.084">AggregateId-B
        </text>
        <rect fill="#F1F1F1" height="34.1328" rx="12.5" ry="12.5" style="stroke:#181818;stroke-width:0.5;" width="32"
              x="491.5" y="922.6152"/>
        <text fill="#000000" font-family="sans-serif" font-size="12" lengthAdjust="spacing" textLength="12" x="501.5"
              y="944.2168">...
        </text>
        <line style="stroke:#181818;stroke-width:1.5;" x1="224.5" x2="507.5" y1="1024.248" y2="1024.248"/>
        <ellipse cx="290.5" cy="1067.248" fill="none" rx="11" ry="11" style="stroke:#222222;stroke-width:1.0;"/>
        <ellipse cx="290.5" cy="1067.248" fill="#222222" rx="6" ry="6" style="stroke:#222222;stroke-width:1.0;"/>
        <line style="stroke:#181818;stroke-width:1.0;" x1="290.5" x2="290.5" y1="96.7539" y2="116.7539"/>
        <polygon fill="#181818" points="286.5,106.7539,290.5,116.7539,294.5,106.7539,290.5,110.7539"
                 style="stroke:#181818;stroke-width:1.0;"/>
        <line style="stroke:#181818;stroke-width:1.0;" x1="125.5" x2="125.5" y1="290.4492" y2="337.3906"/>
        <polygon fill="#181818" points="121.5,327.3906,125.5,337.3906,129.5,327.3906,125.5,331.3906"
                 style="stroke:#181818;stroke-width:1.0;"/>
        <line style="stroke:#181818;stroke-width:1.0;" x1="125.5" x2="125.5" y1="464.1445" y2="505.4199"/>
        <polygon fill="#181818" points="121.5,495.4199,125.5,505.4199,129.5,495.4199,125.5,499.4199"
                 style="stroke:#181818;stroke-width:1.0;"/>
        <text fill="#000000" font-family="sans-serif" font-size="11" lengthAdjust="spacing" textLength="107" x="129.5"
              y="485.5996">DomainEventStream
        </text>
        <line style="stroke:#181818;stroke-width:1.0;" x1="125.5" x2="125.5" y1="371.5234" y2="430.0117"/>
        <polygon fill="#181818" points="121.5,420.0117,125.5,430.0117,129.5,420.0117,125.5,424.0117"
                 style="stroke:#181818;stroke-width:1.0;"/>
        <line style="stroke:#181818;stroke-width:1.0;" x1="125.5" x2="125.5" y1="539.5527" y2="598.041"/>
        <polygon fill="#181818" points="121.5,588.041,125.5,598.041,129.5,588.041,125.5,592.041"
                 style="stroke:#181818;stroke-width:1.0;"/>
        <line style="stroke:#181818;stroke-width:1.0;" x1="365" x2="365" y1="290.4492" y2="337.3906"/>
        <polygon fill="#181818" points="361,327.3906,365,337.3906,369,327.3906,365,331.3906"
                 style="stroke:#181818;stroke-width:1.0;"/>
        <line style="stroke:#181818;stroke-width:1.0;" x1="365" x2="365" y1="464.1445" y2="505.4199"/>
        <polygon fill="#181818" points="361,495.4199,365,505.4199,369,495.4199,365,499.4199"
                 style="stroke:#181818;stroke-width:1.0;"/>
        <text fill="#000000" font-family="sans-serif" font-size="11" lengthAdjust="spacing" textLength="107" x="369"
              y="485.5996">DomainEventStream
        </text>
        <line style="stroke:#181818;stroke-width:1.0;" x1="365" x2="365" y1="371.5234" y2="430.0117"/>
        <polygon fill="#181818" points="361,420.0117,365,430.0117,369,420.0117,365,424.0117"
                 style="stroke:#181818;stroke-width:1.0;"/>
        <line style="stroke:#181818;stroke-width:1.0;" x1="365" x2="365" y1="539.5527" y2="598.041"/>
        <polygon fill="#181818" points="361,588.041,365,598.041,369,588.041,365,592.041"
                 style="stroke:#181818;stroke-width:1.0;"/>
        <line style="stroke:#181818;stroke-width:1.0;" x1="125.5" x2="125.5" y1="237.8164" y2="256.3164"/>
        <polygon fill="#181818" points="121.5,246.3164,125.5,256.3164,129.5,246.3164,125.5,250.3164"
                 style="stroke:#181818;stroke-width:1.0;"/>
        <line style="stroke:#181818;stroke-width:1.0;" x1="365" x2="365" y1="237.8164" y2="256.3164"/>
        <polygon fill="#181818" points="361,246.3164,365,256.3164,369,246.3164,365,250.3164"
                 style="stroke:#181818;stroke-width:1.0;"/>
        <line style="stroke:#181818;stroke-width:1.0;" x1="530" x2="530" y1="237.8164" y2="428.2451"/>
        <polygon fill="#181818" points="526,418.2451,530,428.2451,534,418.2451,530,422.2451"
                 style="stroke:#181818;stroke-width:1.0;"/>
        <line style="stroke:#181818;stroke-width:1.0;" x1="125.5" x2="125.5" y1="632.1738" y2="664.1738"/>
        <polygon fill="#181818" points="121.5,654.1738,125.5,664.1738,129.5,654.1738,125.5,658.1738"
                 style="stroke:#181818;stroke-width:1.0;"/>
        <line style="stroke:#181818;stroke-width:1.0;" x1="365" x2="365" y1="632.1738" y2="664.1738"/>
        <polygon fill="#181818" points="361,654.1738,365,664.1738,369,654.1738,365,658.1738"
                 style="stroke:#181818;stroke-width:1.0;"/>
        <line style="stroke:#181818;stroke-width:1.0;" x1="530" x2="530" y1="462.3779" y2="664.1738"/>
        <polygon fill="#181818" points="526,654.1738,530,664.1738,534,654.1738,530,658.1738"
                 style="stroke:#181818;stroke-width:1.0;"/>
        <line style="stroke:#181818;stroke-width:1.0;" x1="290.5" x2="290.5" y1="150.8867" y2="236.3164"/>
        <polygon fill="#181818" points="286.5,226.3164,290.5,236.3164,294.5,226.3164,290.5,230.3164"
                 style="stroke:#181818;stroke-width:1.0;"/>
        <text fill="#000000" font-family="sans-serif" font-size="11" lengthAdjust="spacing" textLength="136" x="294.5"
              y="172.3418">Group command streams
        </text>
        <text fill="#000000" font-family="sans-serif" font-size="11" lengthAdjust="spacing" textLength="84" x="297.5"
              y="185.2969">by aggregate ID
        </text>
        <text fill="#000000" font-family="sans-serif" font-size="11" lengthAdjust="spacing" textLength="3" x="294.5"
              y="198.252">&#160;
        </text>
        <line style="stroke:#181818;stroke-width:1.0;" x1="74.5" x2="74.5" y1="929.248" y2="964.248"/>
        <polygon fill="#181818" points="70.5,954.248,74.5,964.248,78.5,954.248,74.5,958.248"
                 style="stroke:#181818;stroke-width:1.0;"/>
        <line style="stroke:#181818;stroke-width:1.0;" x1="202.5" x2="202.5" y1="929.248" y2="964.248"/>
        <polygon fill="#181818" points="198.5,954.248,202.5,964.248,206.5,954.248,202.5,958.248"
                 style="stroke:#181818;stroke-width:1.0;"/>
        <line style="stroke:#181818;stroke-width:1.0;" x1="74.5" x2="74.5" y1="875.1152" y2="895.1152"/>
        <polygon fill="#181818" points="70.5,885.1152,74.5,895.1152,78.5,885.1152,74.5,889.1152"
                 style="stroke:#181818;stroke-width:1.0;"/>
        <line style="stroke:#181818;stroke-width:1.0;" x1="202.5" x2="202.5" y1="875.1152" y2="895.1152"/>
        <polygon fill="#181818" points="198.5,885.1152,202.5,895.1152,206.5,885.1152,202.5,889.1152"
                 style="stroke:#181818;stroke-width:1.0;"/>
        <line style="stroke:#181818;stroke-width:1.0;" x1="347.5" x2="347.5" y1="875.1152" y2="922.6152"/>
        <polygon fill="#181818" points="343.5,912.6152,347.5,922.6152,351.5,912.6152,347.5,916.6152"
                 style="stroke:#181818;stroke-width:1.0;"/>
        <line style="stroke:#181818;stroke-width:1.0;" x1="347.5" x2="347.5" y1="956.748" y2="1004.248"/>
        <polygon fill="#181818" points="343.5,994.248,347.5,1004.248,351.5,994.248,347.5,998.248"
                 style="stroke:#181818;stroke-width:1.0;"/>
        <line style="stroke:#181818;stroke-width:1.0;" x1="224.5" x2="224.5" y1="838.6152" y2="873.6152"/>
        <polygon fill="#181818" points="220.5,863.6152,224.5,873.6152,228.5,863.6152,224.5,867.6152"
                 style="stroke:#181818;stroke-width:1.0;"/>
        <line style="stroke:#181818;stroke-width:1.0;" x1="507.5" x2="507.5" y1="887.6152" y2="922.6152"/>
        <polygon fill="#181818" points="503.5,912.6152,507.5,922.6152,511.5,912.6152,507.5,916.6152"
                 style="stroke:#181818;stroke-width:1.0;"/>
        <line style="stroke:#181818;stroke-width:1.0;" x1="224.5" x2="224.5" y1="785.9824" y2="804.4824"/>
        <polygon fill="#181818" points="220.5,794.4824,224.5,804.4824,228.5,794.4824,224.5,798.4824"
                 style="stroke:#181818;stroke-width:1.0;"/>
        <line style="stroke:#181818;stroke-width:1.0;" x1="507.5" x2="507.5" y1="785.9824" y2="853.4824"/>
        <polygon fill="#181818" points="503.5,843.4824,507.5,853.4824,511.5,843.4824,507.5,847.4824"
                 style="stroke:#181818;stroke-width:1.0;"/>
        <line style="stroke:#181818;stroke-width:1.0;" x1="224.5" x2="224.5" y1="1005.748" y2="1024.248"/>
        <polygon fill="#181818" points="220.5,1014.248,224.5,1024.248,228.5,1014.248,224.5,1018.248"
                 style="stroke:#181818;stroke-width:1.0;"/>
        <line style="stroke:#181818;stroke-width:1.0;" x1="507.5" x2="507.5" y1="956.748" y2="1024.248"/>
        <polygon fill="#181818" points="503.5,1014.248,507.5,1024.248,511.5,1014.248,507.5,1018.248"
                 style="stroke:#181818;stroke-width:1.0;"/>
        <line style="stroke:#181818;stroke-width:1.0;" x1="290.5" x2="290.5" y1="665.6738" y2="784.4824"/>
        <polygon fill="#181818" points="286.5,774.4824,290.5,784.4824,294.5,774.4824,290.5,778.4824"
                 style="stroke:#181818;stroke-width:1.0;"/>
        <text fill="#000000" font-family="sans-serif" font-size="11" lengthAdjust="spacing" textLength="250" x="294.5"
              y="697.6289">&#20445;&#25345;&#21629;&#20196;&#22788;&#29702;&#32467;&#26524;&#65288;DomainEventStream&#65289;&#39034;&#24207;&#12290;
        </text>
        <text fill="#000000" font-family="sans-serif" font-size="11" lengthAdjust="spacing" textLength="275" x="294.5"
              y="710.584">&#39046;&#22495;&#20107;&#20214;&#25353;&#32858;&#21512;ID&#20998;&#21306;&#65292;&#20445;&#35777;&#20107;&#20214;&#25237;&#36882;&#21644;&#28040;&#36153;&#30340;&#26377;&#24207;&#24615;&#12290;
        </text>
        <text fill="#000000" font-family="sans-serif" font-size="11" lengthAdjust="spacing" textLength="12" x="294.5"
              y="723.5391">--
        </text>
        <text fill="#000000" font-family="sans-serif" font-size="11" lengthAdjust="spacing" textLength="241" x="294.5"
              y="736.4941">Kafka: Topic:aggregateName,Key:aggregateId
        </text>
        <line style="stroke:#181818;stroke-width:1.0;" x1="290.5" x2="290.5" y1="1025.748" y2="1056.248"/>
        <polygon fill="#181818" points="286.5,1046.248,290.5,1056.248,294.5,1046.248,290.5,1050.248"
                 style="stroke:#181818;stroke-width:1.0;"/>
        <a href="https://github.com/Ahoo-Wang/Wow" target="_top" title="https://github.com/Ahoo-Wang/Wow"
           xlink:actuate="onRequest" xlink:href="https://github.com/Ahoo-Wang/Wow" xlink:show="new"
           xlink:title="https://github.com/Ahoo-Wang/Wow" xlink:type="simple">
            <text fill="#808080" font-family="sans-serif" font-size="10" lengthAdjust="spacing"
                  text-decoration="underline" textLength="183" x="203.5" y="1086.916">https://github.com/Ahoo-Wang/Wow
            </text>
        </a><!--SRC=[pLDTQnD157sVNp6-HN3p0tP5I4oLKEY3yJsCct4TtTqPPcOhYnOIAI7H1TkABwMrA0KVVP52anH_ZDbDyfI_qDd9DhkXz4D1S9w6E-USkVVSU-yGttQ35eOk2caWoopmN00aaIu63wdd8Ry5rpQnB-4Zbxu6pMR5bcIJo13M278uyffDW1LcmG128Yw1sKX36Tq2nWFucDE0GJiJ599Zv0a0duKGEGx73f8Orci0MW0mfK0aeVw5G3KGy0s0wWZc4gblPkM2LcyP5Kl77Ft7yk49PbGGINceNpNBfQXLGZdrxeAPPglPe22qX1cLN83wMLAbh9PC8Jsgp1hr4F6rNmrTerMaDcZ0RU8x9Pm3hiiWWr6ESnN4cCBUhA2jKZMeT2uRLlt7XbN_3yF-tgnokPm35rEt1T8v7lywJA9El7is7Xx7nzkJdUva-2dvSZ0VzIwLCX_rPry7yU3Zx_OxCFlMZO-EneCFu-594lMddVrufrUlnRrk70tceqW9JtzqilVtdsVjlNWlIavwqv-da_tjvA2lT9BszrJACC0wUluAcV0fPSGsbxvl80_VMyUXMMZOoa8LKhpjKgqYD8fn-XBRgU3RPL3vj0elkAb9maTClA0otNtrWHF-0LVt3wflRIm4vVUBp0N3klNCNz5Q8Ia3vm00]-->
    </g>
</svg>