<?xml version="1.0" encoding="us-ascii" standalone="no"?><!--
  - Copyright [2021-present] [ahoo wang <ahoowang@qq.com> (https://github.com/Ahoo-Wang)].
  - Licensed under the Apache License, Version 2.0 (the "License");
  - you may not use this file except in compliance with the License.
  - You may obtain a copy of the License at
  -      http://www.apache.org/licenses/LICENSE-2.0
  - Unless required by applicable law or agreed to in writing, software
  - distributed under the License is distributed on an "AS IS" BASIS,
  - WITHOUT WARRANTIES OR CONDITIONS OF ANY KIND, either express or implied.
  - See the License for the specific language governing permissions and
  - limitations under the License.
  -->

<svg xmlns="http://www.w3.org/2000/svg" xmlns:xlink="http://www.w3.org/1999/xlink" contentStyleType="text/css" height="1918px" preserveAspectRatio="none" style="width:915px;height:1918px;background:#FFFFFF;" version="1.1" viewBox="0 0 915 1918" width="915px" zoomAndPan="magnify"><defs/><g><text fill="#000000" font-family="sans-serif" font-size="14" font-weight="bold" lengthAdjust="spacing" textLength="157" x="375" y="41.3125">OrderProcessManager</text><text fill="#000000" font-family="sans-serif" font-size="14" font-weight="bold" lengthAdjust="spacing" textLength="43" x="432" y="57.8008">(Saga)</text><text fill="#000000" font-family="sans-serif" font-size="14" font-weight="bold" lengthAdjust="spacing" textLength="153" x="377" y="74.2891">Eventual Consistency</text><rect fill="#FFFFFF" height="36.6211" style="stroke:#181818;stroke-width:1.0;" width="10" x="22" y="174.7305"/><rect fill="#FFFFFF" height="1486.5059" style="stroke:#181818;stroke-width:1.0;" width="10" x="22" y="412.5254"/><rect fill="#FFFFFF" height="148.5527" style="stroke:#181818;stroke-width:1.0;" width="10" x="150" y="211.3516"/><rect fill="#FFFFFF" height="74.6211" style="stroke:#181818;stroke-width:1.0;" width="10" x="150" y="551.3887"/><rect fill="#FFFFFF" height="74.6211" style="stroke:#181818;stroke-width:1.0;" width="10" x="150" y="814.1836"/><rect fill="#FFFFFF" height="44.6211" style="stroke:#181818;stroke-width:1.0;" width="10" x="150" y="991.0469"/><rect fill="#FFFFFF" height="104.6211" style="stroke:#181818;stroke-width:1.0;" width="10" x="150" y="1310.418"/><rect fill="#FFFFFF" height="80.6211" style="stroke:#181818;stroke-width:1.0;" width="10" x="420" y="329.9043"/><rect fill="#FFFFFF" height="44.6211" style="stroke:#181818;stroke-width:1.0;" width="10" x="420" y="506.7676"/><rect fill="#FFFFFF" height="104.6211" style="stroke:#181818;stroke-width:1.0;" width="10" x="420" y="596.0098"/><rect fill="#FFFFFF" height="44.6211" style="stroke:#181818;stroke-width:1.0;" width="10" x="420" y="769.5625"/><rect fill="#FFFFFF" height="80.6211" style="stroke:#181818;stroke-width:1.0;" width="10" x="420" y="858.8047"/><rect fill="#FFFFFF" height="29.3105" style="stroke:#181818;stroke-width:1.0;" width="10" x="420" y="1035.668"/><rect fill="#FFFFFF" height="30" style="stroke:#181818;stroke-width:1.0;" width="10" x="420" y="1094.2891"/><rect fill="#FFFFFF" height="50.6211" style="stroke:#181818;stroke-width:1.0;" width="10" x="420" y="1183.8652"/><rect fill="#FFFFFF" height="194.5527" style="stroke:#181818;stroke-width:1.0;" width="10" x="420" y="1385.0391"/><rect fill="#FFFFFF" height="30" style="stroke:#181818;stroke-width:1.0;" width="10" x="420" y="1624.2129"/><rect fill="#FFFFFF" height="29.3105" style="stroke:#181818;stroke-width:1.0;" width="10" x="641" y="255.9727"/><rect fill="#FFFFFF" height="98.9316" style="stroke:#181818;stroke-width:1.0;" width="10" x="641" y="670.6309"/><rect fill="#FFFFFF" height="59.3105" style="stroke:#181818;stroke-width:1.0;" width="10" x="641" y="1064.9785"/><rect fill="#FFFFFF" height="30" style="stroke:#181818;stroke-width:1.0;" width="10" x="641" y="1474.9707"/><rect fill="#FFFFFF" height="65.3105" style="stroke:#181818;stroke-width:1.0;" width="10" x="641" y="1713.7891"/><rect fill="#FFFFFF" height="52" style="stroke:#181818;stroke-width:1.0;" width="10" x="641" y="1846.0313"/><rect fill="#FFFFFF" height="44.6211" style="stroke:#181818;stroke-width:1.0;" width="10" x="726" y="462.1465"/><rect fill="#FFFFFF" height="104.6211" style="stroke:#181818;stroke-width:1.0;" width="10" x="726" y="1549.5918"/><rect fill="#FFFFFF" height="49.6211" style="stroke:#181818;stroke-width:1.0;" width="10" x="822.5" y="941.4258"/><rect fill="#FFFFFF" height="103.9316" style="stroke:#181818;stroke-width:1.0;" width="10" x="822.5" y="1236.4863"/><rect fill="#FFFFFF" height="119.5762" style="stroke:#181818;stroke-width:1.0;" width="10" x="822.5" y="1624.2129"/><rect fill="#FFFFFF" height="94.9316" style="stroke:#181818;stroke-width:1.0;" width="10" x="822.5" y="1781.0996"/><rect fill="none" height="1175.4004" style="stroke:#000000;stroke-width:1.5;" width="790" x="108" y="715.6309"/><rect fill="none" height="627.5449" style="stroke:#000000;stroke-width:1.5;" width="770" x="118" y="1256.4863"/><line style="stroke:#181818;stroke-width:0.5;stroke-dasharray:5.0,5.0;" x1="27" x2="27" y1="164.7305" y2="1908.0313"/><line style="stroke:#181818;stroke-width:0.5;stroke-dasharray:5.0,5.0;" x1="155" x2="155" y1="164.7305" y2="1908.0313"/><line style="stroke:#181818;stroke-width:0.5;stroke-dasharray:5.0,5.0;" x1="424.5" x2="424.5" y1="164.7305" y2="1908.0313"/><line style="stroke:#181818;stroke-width:0.5;stroke-dasharray:5.0,5.0;" x1="646" x2="646" y1="164.7305" y2="1908.0313"/><line style="stroke:#181818;stroke-width:0.5;stroke-dasharray:5.0,5.0;" x1="731" x2="731" y1="164.7305" y2="1908.0313"/><line style="stroke:#181818;stroke-width:0.5;stroke-dasharray:5.0,5.0;" x1="827" x2="827" y1="164.7305" y2="1908.0313"/><text fill="#000000" font-family="sans-serif" font-size="14" lengthAdjust="spacing" textLength="38" x="5" y="161.7773">Buyer</text><ellipse cx="27" cy="96.7422" fill="#E2E2F0" rx="8" ry="8" style="stroke:#181818;stroke-width:0.5;"/><path d="M27,104.7422 L27,131.7422 M14,112.7422 L40,112.7422 M27,131.7422 L14,146.7422 M27,131.7422 L40,146.7422 " fill="none" style="stroke:#181818;stroke-width:0.5;"/><rect fill="#E2E2F0" height="30.4883" rx="2.5" ry="2.5" style="stroke:#181818;stroke-width:0.5;" width="54" x="128" y="133.2422"/><text fill="#000000" font-family="sans-serif" font-size="14" lengthAdjust="spacing" textLength="40" x="135" y="153.7773">Order</text><rect fill="#E2E2F0" height="30.4883" rx="2.5" ry="2.5" style="stroke:#181818;stroke-width:0.5;" width="87" x="381.5" y="133.2422"/><text fill="#000000" font-family="sans-serif" font-size="14" lengthAdjust="spacing" textLength="73" x="388.5" y="153.7773">OrderSaga</text><rect fill="#E2E2F0" height="30.4883" rx="2.5" ry="2.5" style="stroke:#181818;stroke-width:0.5;" width="78" x="607" y="133.2422"/><text fill="#000000" font-family="sans-serif" font-size="14" lengthAdjust="spacing" textLength="64" x="614" y="153.7773">Inventory</text><rect fill="#E2E2F0" height="30.4883" rx="2.5" ry="2.5" style="stroke:#181818;stroke-width:0.5;" width="72" x="695" y="133.2422"/><text fill="#000000" font-family="sans-serif" font-size="14" lengthAdjust="spacing" textLength="58" x="702" y="153.7773">Payment</text><text fill="#000000" font-family="sans-serif" font-size="14" lengthAdjust="spacing" textLength="95" x="777" y="161.7773">ShopManager</text><ellipse cx="827.5" cy="96.7422" fill="#E2E2F0" rx="8" ry="8" style="stroke:#181818;stroke-width:0.5;"/><path d="M827.5,104.7422 L827.5,131.7422 M814.5,112.7422 L840.5,112.7422 M827.5,131.7422 L814.5,146.7422 M827.5,131.7422 L840.5,146.7422 " fill="none" style="stroke:#181818;stroke-width:0.5;"/><rect fill="#FFFFFF" height="36.6211" style="stroke:#181818;stroke-width:1.0;" width="10" x="22" y="174.7305"/><rect fill="#FFFFFF" height="1486.5059" style="stroke:#181818;stroke-width:1.0;" width="10" x="22" y="412.5254"/><rect fill="#FFFFFF" height="148.5527" style="stroke:#181818;stroke-width:1.0;" width="10" x="150" y="211.3516"/><rect fill="#FFFFFF" height="74.6211" style="stroke:#181818;stroke-width:1.0;" width="10" x="150" y="551.3887"/><rect fill="#FFFFFF" height="74.6211" style="stroke:#181818;stroke-width:1.0;" width="10" x="150" y="814.1836"/><rect fill="#FFFFFF" height="44.6211" style="stroke:#181818;stroke-width:1.0;" width="10" x="150" y="991.0469"/><rect fill="#FFFFFF" height="104.6211" style="stroke:#181818;stroke-width:1.0;" width="10" x="150" y="1310.418"/><rect fill="#FFFFFF" height="80.6211" style="stroke:#181818;stroke-width:1.0;" width="10" x="420" y="329.9043"/><rect fill="#FFFFFF" height="44.6211" style="stroke:#181818;stroke-width:1.0;" width="10" x="420" y="506.7676"/><rect fill="#FFFFFF" height="104.6211" style="stroke:#181818;stroke-width:1.0;" width="10" x="420" y="596.0098"/><rect fill="#FFFFFF" height="44.6211" style="stroke:#181818;stroke-width:1.0;" width="10" x="420" y="769.5625"/><rect fill="#FFFFFF" height="80.6211" style="stroke:#181818;stroke-width:1.0;" width="10" x="420" y="858.8047"/><rect fill="#FFFFFF" height="29.3105" style="stroke:#181818;stroke-width:1.0;" width="10" x="420" y="1035.668"/><rect fill="#FFFFFF" height="30" style="stroke:#181818;stroke-width:1.0;" width="10" x="420" y="1094.2891"/><rect fill="#FFFFFF" height="50.6211" style="stroke:#181818;stroke-width:1.0;" width="10" x="420" y="1183.8652"/><rect fill="#FFFFFF" height="194.5527" style="stroke:#181818;stroke-width:1.0;" width="10" x="420" y="1385.0391"/><rect fill="#FFFFFF" height="30" style="stroke:#181818;stroke-width:1.0;" width="10" x="420" y="1624.2129"/><rect fill="#FFFFFF" height="29.3105" style="stroke:#181818;stroke-width:1.0;" width="10" x="641" y="255.9727"/><rect fill="#FFFFFF" height="98.9316" style="stroke:#181818;stroke-width:1.0;" width="10" x="641" y="670.6309"/><rect fill="#FFFFFF" height="59.3105" style="stroke:#181818;stroke-width:1.0;" width="10" x="641" y="1064.9785"/><rect fill="#FFFFFF" height="30" style="stroke:#181818;stroke-width:1.0;" width="10" x="641" y="1474.9707"/><rect fill="#FFFFFF" height="65.3105" style="stroke:#181818;stroke-width:1.0;" width="10" x="641" y="1713.7891"/><rect fill="#FFFFFF" height="52" style="stroke:#181818;stroke-width:1.0;" width="10" x="641" y="1846.0313"/><rect fill="#FFFFFF" height="44.6211" style="stroke:#181818;stroke-width:1.0;" width="10" x="726" y="462.1465"/><rect fill="#FFFFFF" height="104.6211" style="stroke:#181818;stroke-width:1.0;" width="10" x="726" y="1549.5918"/><rect fill="#FFFFFF" height="49.6211" style="stroke:#181818;stroke-width:1.0;" width="10" x="822.5" y="941.4258"/><rect fill="#FFFFFF" height="103.9316" style="stroke:#181818;stroke-width:1.0;" width="10" x="822.5" y="1236.4863"/><rect fill="#FFFFFF" height="119.5762" style="stroke:#181818;stroke-width:1.0;" width="10" x="822.5" y="1624.2129"/><rect fill="#FFFFFF" height="94.9316" style="stroke:#181818;stroke-width:1.0;" width="10" x="822.5" y="1781.0996"/><polygon fill="#181818" points="138,207.3516,148,211.3516,138,215.3516,142,211.3516" style="stroke:#181818;stroke-width:1.0;"/><line style="stroke:#181818;stroke-width:1.0;" x1="27" x2="144" y1="211.3516" y2="211.3516"/><text fill="#000000" font-family="sans-serif" font-size="13" lengthAdjust="spacing" textLength="16" x="34" y="198.9541">[1]</text><text fill="#000000" font-family="sans-serif" font-size="13" lengthAdjust="spacing" textLength="75" x="54" y="191.2988">CreateOrder</text><text fill="#000000" font-family="sans-serif" font-size="13" lengthAdjust="spacing" textLength="60" x="54" y="206.6094">(&#21019;&#24314;&#35746;&#21333;)</text><polygon fill="#181818" points="629,251.9727,639,255.9727,629,259.9727,633,255.9727" style="stroke:#181818;stroke-width:1.0;"/><line style="stroke:#181818;stroke-width:1.0;" x1="160" x2="635" y1="255.9727" y2="255.9727"/><text fill="#000000" font-family="sans-serif" font-size="13" lengthAdjust="spacing" textLength="16" x="167" y="243.5752">[2]</text><text fill="#000000" font-family="sans-serif" font-size="13" lengthAdjust="spacing" textLength="98" x="187" y="235.9199">CheckInventory</text><text fill="#000000" font-family="sans-serif" font-size="13" lengthAdjust="spacing" textLength="60" x="187" y="251.2305">(&#26657;&#39564;&#24211;&#23384;)</text><polygon fill="#181818" points="171,281.2832,161,285.2832,171,289.2832,167,285.2832" style="stroke:#181818;stroke-width:1.0;"/><line style="stroke:#181818;stroke-width:1.0;stroke-dasharray:2.0,2.0;" x1="165" x2="645" y1="285.2832" y2="285.2832"/><text fill="#000000" font-family="sans-serif" font-size="13" lengthAdjust="spacing" textLength="16" x="177" y="280.541">[3]</text><text fill="#000000" font-family="sans-serif" font-size="13" lengthAdjust="spacing" textLength="18" x="197" y="280.541">OK</text><polygon fill="#181818" points="408,325.9043,418,329.9043,408,333.9043,412,329.9043" style="stroke:#181818;stroke-width:1.0;"/><line style="stroke:#181818;stroke-width:1.0;stroke-dasharray:2.0,2.0;" x1="160" x2="414" y1="329.9043" y2="329.9043"/><text fill="#000000" font-family="sans-serif" font-size="13" lengthAdjust="spacing" textLength="16" x="167" y="317.5068">[4]</text><text fill="#000000" font-family="sans-serif" font-size="13" lengthAdjust="spacing" textLength="83" x="187" y="309.8516">OrderCreated</text><text fill="#000000" font-family="sans-serif" font-size="13" lengthAdjust="spacing" textLength="73" x="187" y="325.1621">(&#35746;&#21333;&#24050;&#21019;&#24314;)</text><line style="stroke:#181818;stroke-width:1.0;" x1="435" x2="477" y1="404.5254" y2="404.5254"/><line style="stroke:#181818;stroke-width:1.0;" x1="477" x2="477" y1="404.5254" y2="417.5254"/><line style="stroke:#181818;stroke-width:1.0;" x1="436" x2="477" y1="417.5254" y2="417.5254"/><polygon fill="#181818" points="446,413.5254,436,417.5254,446,421.5254,442,417.5254" style="stroke:#181818;stroke-width:1.0;"/><text fill="#000000" font-family="sans-serif" font-size="13" lengthAdjust="spacing" textLength="16" x="442" y="392.1279">[5]</text><text fill="#000000" font-family="sans-serif" font-size="13" lengthAdjust="spacing" textLength="106" x="462" y="384.4727">wait for payment</text><text fill="#000000" font-family="sans-serif" font-size="13" lengthAdjust="spacing" textLength="60" x="462" y="399.7832">(&#31561;&#24453;&#25903;&#20184;)</text><polygon fill="#181818" points="714,458.1465,724,462.1465,714,466.1465,718,462.1465" style="stroke:#181818;stroke-width:1.0;"/><line style="stroke:#181818;stroke-width:1.0;" x1="32" x2="720" y1="462.1465" y2="462.1465"/><text fill="#000000" font-family="sans-serif" font-size="13" lengthAdjust="spacing" textLength="16" x="39" y="449.749">[6]</text><text fill="#000000" font-family="sans-serif" font-size="13" lengthAdjust="spacing" textLength="21" x="59" y="442.0938">Pay</text><text fill="#000000" font-family="sans-serif" font-size="13" lengthAdjust="spacing" textLength="34" x="59" y="457.4043">(&#25903;&#20184;)</text><polygon fill="#181818" points="441,502.7676,431,506.7676,441,510.7676,437,506.7676" style="stroke:#181818;stroke-width:1.0;"/><line style="stroke:#181818;stroke-width:1.0;stroke-dasharray:2.0,2.0;" x1="435" x2="730" y1="506.7676" y2="506.7676"/><text fill="#000000" font-family="sans-serif" font-size="13" lengthAdjust="spacing" textLength="16" x="447" y="494.3701">[7]</text><text fill="#000000" font-family="sans-serif" font-size="13" lengthAdjust="spacing" textLength="79" x="467" y="486.7148">PaymentPaid</text><text fill="#000000" font-family="sans-serif" font-size="13" lengthAdjust="spacing" textLength="47" x="467" y="502.0254">(&#24050;&#25903;&#20184;)</text><polygon fill="#181818" points="171,547.3887,161,551.3887,171,555.3887,167,551.3887" style="stroke:#181818;stroke-width:1.0;"/><line style="stroke:#181818;stroke-width:1.0;" x1="165" x2="424" y1="551.3887" y2="551.3887"/><text fill="#000000" font-family="sans-serif" font-size="13" lengthAdjust="spacing" textLength="16" x="177" y="538.9912">[8]</text><text fill="#000000" font-family="sans-serif" font-size="13" lengthAdjust="spacing" textLength="60" x="197" y="531.3359">Pay Order</text><text fill="#000000" font-family="sans-serif" font-size="13" lengthAdjust="spacing" textLength="60" x="197" y="546.6465">(&#25903;&#20184;&#35746;&#21333;)</text><polygon fill="#181818" points="408,592.0098,418,596.0098,408,600.0098,412,596.0098" style="stroke:#181818;stroke-width:1.0;"/><line style="stroke:#181818;stroke-width:1.0;stroke-dasharray:2.0,2.0;" x1="160" x2="414" y1="596.0098" y2="596.0098"/><text fill="#000000" font-family="sans-serif" font-size="13" lengthAdjust="spacing" textLength="16" x="167" y="583.6123">[9]</text><text fill="#000000" font-family="sans-serif" font-size="13" lengthAdjust="spacing" textLength="61" x="187" y="575.957">OrderPaid</text><text fill="#000000" font-family="sans-serif" font-size="13" lengthAdjust="spacing" textLength="73" x="187" y="591.2676">(&#35746;&#21333;&#24050;&#25903;&#20184;)</text><polygon fill="#181818" points="629,666.6309,639,670.6309,629,674.6309,633,670.6309" style="stroke:#181818;stroke-width:1.0;"/><line style="stroke:#181818;stroke-width:1.0;" x1="430" x2="635" y1="670.6309" y2="670.6309"/><text fill="#000000" font-family="sans-serif" font-size="13" lengthAdjust="spacing" textLength="24" x="437" y="658.2334">[10]</text><text fill="#000000" font-family="sans-serif" font-size="13" lengthAdjust="spacing" textLength="105" x="465" y="650.5781">PrepareInventory</text><text fill="#000000" font-family="sans-serif" font-size="13" lengthAdjust="spacing" textLength="60" x="469" y="665.8887">(&#20934;&#22791;&#24211;&#23384;)</text><path d="M108,715.6309 L170,715.6309 L170,722.9414 L160,732.9414 L108,732.9414 L108,715.6309 " fill="#EEEEEE" style="stroke:#000000;stroke-width:1.5;"/><rect fill="none" height="1175.4004" style="stroke:#000000;stroke-width:1.5;" width="790" x="108" y="715.6309"/><text fill="#000000" font-family="sans-serif" font-size="13" font-weight="bold" lengthAdjust="spacing" textLength="17" x="123" y="729.1992">alt</text><text fill="#000000" font-family="sans-serif" font-size="11" font-weight="bold" lengthAdjust="spacing" textLength="156" x="185" y="728.2656">[success&#65306;&#24211;&#23384;&#20934;&#22791;/&#38145;&#23450;&#25104;&#21151;]</text><polygon fill="#181818" points="441,765.5625,431,769.5625,441,773.5625,437,769.5625" style="stroke:#181818;stroke-width:1.0;"/><line style="stroke:#181818;stroke-width:1.0;stroke-dasharray:2.0,2.0;" x1="435" x2="645" y1="769.5625" y2="769.5625"/><text fill="#000000" font-family="sans-serif" font-size="13" lengthAdjust="spacing" textLength="24" x="447" y="757.165">[11]</text><text fill="#000000" font-family="sans-serif" font-size="13" lengthAdjust="spacing" textLength="113" x="475" y="749.5098">InventoryPrepared</text><text fill="#000000" font-family="sans-serif" font-size="13" lengthAdjust="spacing" textLength="73" x="475" y="764.8203">(&#24211;&#23384;&#24050;&#20934;&#22791;)</text><polygon fill="#181818" points="171,810.1836,161,814.1836,171,818.1836,167,814.1836" style="stroke:#181818;stroke-width:1.0;"/><line style="stroke:#181818;stroke-width:1.0;" x1="165" x2="424" y1="814.1836" y2="814.1836"/><text fill="#000000" font-family="sans-serif" font-size="13" lengthAdjust="spacing" textLength="24" x="177" y="801.7861">[12]</text><text fill="#000000" font-family="sans-serif" font-size="13" lengthAdjust="spacing" textLength="164" x="205" y="794.1309">ConfirmInventoryPrepared</text><text fill="#000000" font-family="sans-serif" font-size="13" lengthAdjust="spacing" textLength="171" x="209" y="809.4414">(&#30830;&#35748;&#35746;&#21333;&#39033;&#24211;&#23384;&#24050;&#20934;&#22791;/&#38145;&#23450;)</text><polygon fill="#181818" points="408,854.8047,418,858.8047,408,862.8047,412,858.8047" style="stroke:#181818;stroke-width:1.0;"/><line style="stroke:#181818;stroke-width:1.0;stroke-dasharray:2.0,2.0;" x1="160" x2="414" y1="858.8047" y2="858.8047"/><text fill="#000000" font-family="sans-serif" font-size="13" lengthAdjust="spacing" textLength="24" x="167" y="846.4072">[13]</text><text fill="#000000" font-family="sans-serif" font-size="13" lengthAdjust="spacing" textLength="179" x="195" y="838.752">InventoryPreparedConfirmed</text><text fill="#000000" font-family="sans-serif" font-size="13" lengthAdjust="spacing" textLength="112" x="195" y="854.0625">(&#35746;&#21333;&#39033;&#24211;&#23384;&#24050;&#30830;&#35748;)</text><line style="stroke:#181818;stroke-width:1.0;" x1="435" x2="477" y1="933.4258" y2="933.4258"/><line style="stroke:#181818;stroke-width:1.0;" x1="477" x2="477" y1="933.4258" y2="946.4258"/><line style="stroke:#181818;stroke-width:1.0;" x1="436" x2="477" y1="946.4258" y2="946.4258"/><polygon fill="#181818" points="446,942.4258,436,946.4258,446,950.4258,442,946.4258" style="stroke:#181818;stroke-width:1.0;"/><text fill="#000000" font-family="sans-serif" font-size="13" lengthAdjust="spacing" textLength="24" x="442" y="921.0283">[14]</text><text fill="#000000" font-family="sans-serif" font-size="13" lengthAdjust="spacing" textLength="79" x="470" y="913.373">wait for Ship</text><text fill="#000000" font-family="sans-serif" font-size="13" lengthAdjust="spacing" textLength="60" x="470" y="928.6836">(&#31561;&#24453;&#21457;&#36135;)</text><polygon fill="#181818" points="171,987.0469,161,991.0469,171,995.0469,167,991.0469" style="stroke:#181818;stroke-width:1.0;"/><line style="stroke:#181818;stroke-width:1.0;" x1="165" x2="826.5" y1="991.0469" y2="991.0469"/><text fill="#000000" font-family="sans-serif" font-size="13" lengthAdjust="spacing" textLength="24" x="177" y="978.6494">[15]</text><text fill="#000000" font-family="sans-serif" font-size="13" lengthAdjust="spacing" textLength="62" x="205" y="970.9941">ShipOrder</text><text fill="#000000" font-family="sans-serif" font-size="13" lengthAdjust="spacing" textLength="60" x="205" y="986.3047">(&#35746;&#21333;&#21457;&#36135;)</text><polygon fill="#181818" points="408,1031.668,418,1035.668,408,1039.668,412,1035.668" style="stroke:#181818;stroke-width:1.0;"/><line style="stroke:#181818;stroke-width:1.0;" x1="155" x2="414" y1="1035.668" y2="1035.668"/><text fill="#000000" font-family="sans-serif" font-size="13" lengthAdjust="spacing" textLength="24" x="162" y="1023.2705">[16]</text><text fill="#000000" font-family="sans-serif" font-size="13" lengthAdjust="spacing" textLength="85" x="190" y="1015.6152">OrderShipped</text><text fill="#000000" font-family="sans-serif" font-size="13" lengthAdjust="spacing" textLength="73" x="190" y="1030.9258">(&#35746;&#21333;&#24050;&#21457;&#36135;)</text><polygon fill="#181818" points="629,1060.9785,639,1064.9785,629,1068.9785,633,1064.9785" style="stroke:#181818;stroke-width:1.0;"/><line style="stroke:#181818;stroke-width:1.0;" x1="425" x2="635" y1="1064.9785" y2="1064.9785"/><text fill="#000000" font-family="sans-serif" font-size="13" lengthAdjust="spacing" textLength="24" x="432" y="1060.2363">[17]</text><text fill="#000000" font-family="sans-serif" font-size="13" lengthAdjust="spacing" textLength="27" x="460" y="1060.2363">Ship</text><polygon fill="#181818" points="441,1090.2891,431,1094.2891,441,1098.2891,437,1094.2891" style="stroke:#181818;stroke-width:1.0;"/><line style="stroke:#181818;stroke-width:1.0;stroke-dasharray:2.0,2.0;" x1="435" x2="640" y1="1094.2891" y2="1094.2891"/><text fill="#000000" font-family="sans-serif" font-size="13" lengthAdjust="spacing" textLength="24" x="447" y="1089.5469">[18]</text><text fill="#000000" font-family="sans-serif" font-size="13" lengthAdjust="spacing" textLength="109" x="475" y="1089.5469">InventoryShipped</text><line style="stroke:#000000;stroke-width:1.0;stroke-dasharray:2.0,2.0;" x1="108" x2="898" y1="1133.2891" y2="1133.2891"/><text fill="#000000" font-family="sans-serif" font-size="11" font-weight="bold" lengthAdjust="spacing" textLength="136" x="113" y="1143.9238">[fail&#65306; &#24211;&#23384;&#20998;&#37197;/&#38145;&#23450;&#22833;&#36133;]</text><polygon fill="#181818" points="441,1179.8652,431,1183.8652,441,1187.8652,437,1183.8652" style="stroke:#181818;stroke-width:1.0;"/><line style="stroke:#181818;stroke-width:1.0;stroke-dasharray:2.0,2.0;" x1="435" x2="645" y1="1183.8652" y2="1183.8652"/><text fill="#000000" font-family="sans-serif" font-size="13" lengthAdjust="spacing" textLength="24" x="447" y="1171.4678">[19]</text><text fill="#000000" font-family="sans-serif" font-size="13" lengthAdjust="spacing" textLength="142" x="475" y="1163.8125">InventoryPrepareFailed</text><text fill="#000000" font-family="sans-serif" font-size="13" lengthAdjust="spacing" textLength="86" x="475" y="1179.123">(&#24211;&#23384;&#20934;&#22791;&#22833;&#36133;)</text><line style="stroke:#181818;stroke-width:1.0;" x1="435" x2="477" y1="1228.4863" y2="1228.4863"/><line style="stroke:#181818;stroke-width:1.0;" x1="477" x2="477" y1="1228.4863" y2="1241.4863"/><line style="stroke:#181818;stroke-width:1.0;" x1="436" x2="477" y1="1241.4863" y2="1241.4863"/><polygon fill="#181818" points="446,1237.4863,436,1241.4863,446,1245.4863,442,1241.4863" style="stroke:#181818;stroke-width:1.0;"/><text fill="#000000" font-family="sans-serif" font-size="13" lengthAdjust="spacing" textLength="24" x="442" y="1216.0889">[20]</text><text fill="#000000" font-family="sans-serif" font-size="13" lengthAdjust="spacing" textLength="26" x="470" y="1208.4336">wait</text><text fill="#000000" font-family="sans-serif" font-size="13" lengthAdjust="spacing" textLength="125" x="470" y="1223.7441">(&#31561;&#24453;&#24215;&#38138;&#31649;&#29702;&#21592;&#22788;&#29702;)</text><path d="M118,1256.4863 L180,1256.4863 L180,1263.7969 L170,1273.7969 L118,1273.7969 L118,1256.4863 " fill="#EEEEEE" style="stroke:#000000;stroke-width:1.5;"/><rect fill="none" height="627.5449" style="stroke:#000000;stroke-width:1.5;" width="770" x="118" y="1256.4863"/><text fill="#000000" font-family="sans-serif" font-size="13" font-weight="bold" lengthAdjust="spacing" textLength="17" x="133" y="1270.0547">alt</text><text fill="#000000" font-family="sans-serif" font-size="11" font-weight="bold" lengthAdjust="spacing" textLength="74" x="195" y="1269.1211">[&#30830;&#35748;&#26080;&#27861;&#20379;&#36135;]</text><polygon fill="#181818" points="171,1306.418,161,1310.418,171,1314.418,167,1310.418" style="stroke:#181818;stroke-width:1.0;"/><line style="stroke:#181818;stroke-width:1.0;" x1="165" x2="821.5" y1="1310.418" y2="1310.418"/><text fill="#000000" font-family="sans-serif" font-size="13" lengthAdjust="spacing" textLength="24" x="177" y="1298.0205">[21]</text><text fill="#000000" font-family="sans-serif" font-size="13" lengthAdjust="spacing" textLength="150" x="205" y="1290.3652">ConfirmCannotSupplied</text><text fill="#000000" font-family="sans-serif" font-size="13" lengthAdjust="spacing" textLength="86" x="205" y="1305.6758">(&#30830;&#35748;&#26080;&#27861;&#20379;&#36135;)</text><polygon fill="#181818" points="408,1381.0391,418,1385.0391,408,1389.0391,412,1385.0391" style="stroke:#181818;stroke-width:1.0;"/><line style="stroke:#181818;stroke-width:1.0;stroke-dasharray:2.0,2.0;" x1="160" x2="414" y1="1385.0391" y2="1385.0391"/><text fill="#000000" font-family="sans-serif" font-size="13" lengthAdjust="spacing" textLength="24" x="167" y="1372.6416">[22]</text><text fill="#000000" font-family="sans-serif" font-size="13" lengthAdjust="spacing" textLength="96" x="195" y="1364.9863">OrderCancelled</text><text fill="#000000" font-family="sans-serif" font-size="13" lengthAdjust="spacing" textLength="209" x="199" y="1380.2969">(cancelType=CANNOT_SUPPLIED)</text><polygon fill="#181818" points="629,1470.9707,639,1474.9707,629,1478.9707,633,1474.9707" style="stroke:#181818;stroke-width:1.0;"/><line style="stroke:#181818;stroke-width:1.0;" x1="430" x2="635" y1="1474.9707" y2="1474.9707"/><text fill="#000000" font-family="sans-serif" font-size="13" lengthAdjust="spacing" textLength="24" x="437" y="1454.918">[23]</text><text fill="#000000" font-family="sans-serif" font-size="13" lengthAdjust="spacing" textLength="147" x="465" y="1439.6074">CancelInventoryPrepare</text><text fill="#000000" font-family="sans-serif" font-size="13" lengthAdjust="spacing" textLength="86" x="465" y="1454.918">(&#21462;&#28040;&#24211;&#23384;&#20998;&#37197;)</text><text fill="#000000" font-family="sans-serif" font-size="13" lengthAdjust="spacing" textLength="164" x="465" y="1470.2285">(&#21487;&#33021;&#23384;&#22312;&#37096;&#20998;&#21830;&#21697;&#38145;&#23450;&#25104;&#21151;)</text><polygon fill="#181818" points="714,1545.5918,724,1549.5918,714,1553.5918,718,1549.5918" style="stroke:#181818;stroke-width:1.0;"/><line style="stroke:#181818;stroke-width:1.0;" x1="430" x2="720" y1="1549.5918" y2="1549.5918"/><text fill="#000000" font-family="sans-serif" font-size="13" lengthAdjust="spacing" textLength="24" x="437" y="1537.1943">[24]</text><text fill="#000000" font-family="sans-serif" font-size="13" lengthAdjust="spacing" textLength="44" x="465" y="1529.5391">Refund</text><text fill="#000000" font-family="sans-serif" font-size="13" lengthAdjust="spacing" textLength="34" x="465" y="1544.8496">(&#36864;&#27454;)</text><polygon fill="#181818" points="441,1620.2129,431,1624.2129,441,1628.2129,437,1624.2129" style="stroke:#181818;stroke-width:1.0;"/><line style="stroke:#181818;stroke-width:1.0;stroke-dasharray:2.0,2.0;" x1="435" x2="725" y1="1624.2129" y2="1624.2129"/><text fill="#000000" font-family="sans-serif" font-size="13" lengthAdjust="spacing" textLength="24" x="447" y="1611.8154">[25]</text><text fill="#000000" font-family="sans-serif" font-size="13" lengthAdjust="spacing" textLength="59" x="475" y="1604.1602">Refunded</text><text fill="#000000" font-family="sans-serif" font-size="13" lengthAdjust="spacing" textLength="47" x="475" y="1619.4707">(&#24050;&#36864;&#27454;)</text><line style="stroke:#000000;stroke-width:1.0;stroke-dasharray:2.0,2.0;" x1="118" x2="888" y1="1663.2129" y2="1663.2129"/><text fill="#000000" font-family="sans-serif" font-size="11" font-weight="bold" lengthAdjust="spacing" textLength="85" x="123" y="1673.8477">[&#21487;&#20197;&#20379;&#36135;&#65292;&#34917;&#36135;]</text><polygon fill="#181818" points="662,1709.7891,652,1713.7891,662,1717.7891,658,1713.7891" style="stroke:#181818;stroke-width:1.0;"/><line style="stroke:#181818;stroke-width:1.0;" x1="656" x2="821.5" y1="1713.7891" y2="1713.7891"/><text fill="#000000" font-family="sans-serif" font-size="13" lengthAdjust="spacing" textLength="24" x="668" y="1701.3916">[26]</text><text fill="#000000" font-family="sans-serif" font-size="13" lengthAdjust="spacing" textLength="93" x="696" y="1693.7363">Replenishment</text><text fill="#000000" font-family="sans-serif" font-size="13" lengthAdjust="spacing" textLength="93" x="696" y="1709.0469">(&#32534;&#36753;&#24211;&#23384;/&#34917;&#36135;)</text><line style="stroke:#181818;stroke-width:1.0;stroke-dasharray:2.0,2.0;" x1="656" x2="698" y1="1773.0996" y2="1773.0996"/><line style="stroke:#181818;stroke-width:1.0;stroke-dasharray:2.0,2.0;" x1="698" x2="698" y1="1773.0996" y2="1786.0996"/><line style="stroke:#181818;stroke-width:1.0;stroke-dasharray:2.0,2.0;" x1="657" x2="698" y1="1786.0996" y2="1786.0996"/><polygon fill="#181818" points="667,1782.0996,657,1786.0996,667,1790.0996,663,1786.0996" style="stroke:#181818;stroke-width:1.0;"/><text fill="#000000" font-family="sans-serif" font-size="13" lengthAdjust="spacing" textLength="24" x="663" y="1768.3574">[27]</text><text fill="#000000" font-family="sans-serif" font-size="13" lengthAdjust="spacing" textLength="4" x="691" y="1768.3574">&#160;</text><polygon fill="#181818" points="662,1842.0313,652,1846.0313,662,1850.0313,658,1846.0313" style="stroke:#181818;stroke-width:1.0;"/><line style="stroke:#181818;stroke-width:1.0;" x1="656" x2="821.5" y1="1846.0313" y2="1846.0313"/><text fill="#000000" font-family="sans-serif" font-size="13" lengthAdjust="spacing" textLength="24" x="668" y="1825.9785">[28]</text><text fill="#000000" font-family="sans-serif" font-size="13" lengthAdjust="spacing" textLength="105" x="696" y="1810.668">PrepareInventory</text><text fill="#000000" font-family="sans-serif" font-size="13" lengthAdjust="spacing" textLength="112" x="696" y="1825.9785">(&#35746;&#21333;&#24211;&#23384;&#20998;&#37197;&#37325;&#35797;)</text><text fill="#000000" font-family="sans-serif" font-size="13" lengthAdjust="spacing" textLength="84" x="696" y="1841.2891">(&#22238;&#21040;&#27493;&#39588;[10])</text><a href="https://github.com/Ahoo-Wang/Wow" target="_top" title="https://github.com/Ahoo-Wang/Wow" xlink:actuate="onRequest" xlink:href="https://github.com/Ahoo-Wang/Wow" xlink:show="new" xlink:title="https://github.com/Ahoo-Wang/Wow" xlink:type="simple"><text fill="#808080" font-family="sans-serif" font-size="10" lengthAdjust="spacing" text-decoration="underline" textLength="183" x="724" y="14.668">https://github.com/Ahoo-Wang/Wow</text></a><a href="https://github.com/Ahoo-Wang/Wow" target="_top" title="https://github.com/Ahoo-Wang/Wow" xlink:actuate="onRequest" xlink:href="https://github.com/Ahoo-Wang/Wow" xlink:show="new" xlink:title="https://github.com/Ahoo-Wang/Wow" xlink:type="simple"><text fill="#808080" font-family="sans-serif" font-size="10" lengthAdjust="spacing" text-decoration="underline" textLength="183" x="362" y="1908.6992">https://github.com/Ahoo-Wang/Wow</text></a><!--SRC=[fLPTJzDG6BxlhpXojMMfu2tH9OgO41KMXbT8pA4SM6FNDbshxWw2m3GG830WO9IP4GcHuGVH2CYluMph5N_1yzNrj1jeubtFs_C-x_C-ptjEUqCtDSERGC20HSjpRzfUtb1StJMGCkHC82VZM1eg51v34quXHqbauHHCAlqlaEbwq01zbbdG2ouojQA2p0d0CtCw0PoqB7VSUgKeK7Cj1zppYYJVXewhQxeDJHS0LY0IOX5Q8X8TC6avoob6eXbOp9EmWC_cB3iW2JtNChtyE790rsZFM9UYiEAfb7W0QffN0ggQIe5UqESWw28UUcecS6a7dvuqQn_nKZcfY9tfa0P8fKXE3cdFmn19g-zM_8D5VBA63xU2jDkgAkMHHIyOUXX01ZHemmIJlwK1pcU2Wd8M-EStJYgfAAqKDHq-qjINK7U9wWwmkJ8qlN7u1f_FrTUFBau9fq26bWf2Gq1L8C-i2x4tP4Px23PImNg3LGRgZ2DX5yaY6K2Y9Z90Ir- -EQQlB0RLGaWHr6Zf45II2CQyOM9a74I61Sa6WGHUcCVLXS0XQBYWu6bql2_FjdcKx-ZsrsTmRRjUMi5lFoW0011LeuNAcsijHL4k2iSZnZ78P0ZJGHvoZ2Pr9zy922GQbLgpLkK2-9LVCM31LSRle6KRigWe3vcCpMicexrVEN3Pd6w7quQNLvl7duX3D5awb_JyHKIGtd4PA4vhIeJZ0apgBXrNZoz9hXq_Cr9of9WICrMUe93ATSv7V1UrsNu99wQUgY2ZGEv5g1jate3GkZJlpoq94t7rQ_DuJxc-BcXtym61Z4mTdtE6zYyUXjQTRFfh9urQfR4oZrUtSFKrUU08zBJmgQXlxjQ_bo_ETuYsx5Mxpq6qazLy8CNyzK7JjDoiPzk6pZjehv6CmLrrLH0i3Hc6E3KQMuqKRNIdx-xWuD38i-oJJERHGF_z65xR0B03oRBZEZE5bpVgFqgoUKaMFMhE_gQXT_l-x3vvWSlpU6r6laZ2kl4PQUCYBbZUt32Qz4ocZJyzNVzytec_T4VBIIYudw_C50pOP98cBaxtkEYNPulDojxV7Guls4uk3oFRGAPUoBM-HsSRpVDLhbutBz115cQn95BlVv7ey2a8hWZ9HNzXgNbKPbxklCUbB_N3FV-WEdghPumJ97ytz0-7VtQ8QhA7GdbL_GC0]--></g></svg>