<?xml version="1.0" encoding="us-ascii" standalone="no"?><svg xmlns="http://www.w3.org/2000/svg" xmlns:xlink="http://www.w3.org/1999/xlink" contentStyleType="text/css" height="1038px" preserveAspectRatio="none" style="width:499px;height:1038px;background:#FFFFFF;" version="1.1" viewBox="0 0 499 1038" width="499px" zoomAndPan="magnify"><defs/><g><text fill="#000000" font-family="sans-serif" font-size="14" font-weight="bold" lengthAdjust="spacing" textLength="177" x="157" y="41.3125">TransferProcessManager</text><text fill="#000000" font-family="sans-serif" font-size="14" font-weight="bold" lengthAdjust="spacing" textLength="43" x="224" y="57.8008">(Saga)</text><rect fill="#FFFFFF" height="36.6211" style="stroke:#181818;stroke-width:1.0;" width="10" x="18.5" y="158.2422"/><rect fill="#FFFFFF" height="249.8633" style="stroke:#181818;stroke-width:1.0;" width="10" x="127.5" y="194.8633"/><rect fill="#FFFFFF" height="28" style="stroke:#181818;stroke-width:1.0;" width="10" x="132.5" y="247.4844"/><rect fill="#FFFFFF" height="28" style="stroke:#181818;stroke-width:1.0;" width="10" x="132.5" y="335.1055"/><rect fill="#FFFFFF" height="110.6211" style="stroke:#181818;stroke-width:1.0;" width="10" x="127.5" y="632.9004"/><rect fill="#FFFFFF" height="28" style="stroke:#181818;stroke-width:1.0;" width="10" x="132.5" y="715.5215"/><rect fill="#FFFFFF" height="110.6211" style="stroke:#181818;stroke-width:1.0;" width="10" x="127.5" y="884.7188"/><rect fill="#FFFFFF" height="28" style="stroke:#181818;stroke-width:1.0;" width="10" x="132.5" y="967.3398"/><rect fill="#FFFFFF" height="74.6211" style="stroke:#181818;stroke-width:1.0;" width="10" x="292.5" y="414.7266"/><rect fill="#FFFFFF" height="104.6211" style="stroke:#181818;stroke-width:1.0;" width="10" x="292.5" y="558.2793"/><rect fill="#FFFFFF" height="104.6211" style="stroke:#181818;stroke-width:1.0;" width="10" x="292.5" y="810.0977"/><rect fill="#FFFFFF" height="98.9316" style="stroke:#181818;stroke-width:1.0;" width="10" x="409.5" y="489.3477"/><rect fill="none" height="505.9922" style="stroke:#000000;stroke-width:1.5;" width="418" x="64" y="504.3477"/><line style="stroke:#181818;stroke-width:0.5;stroke-dasharray:5.0,5.0;" x1="23" x2="23" y1="148.2422" y2="1027.3398"/><line style="stroke:#181818;stroke-width:0.5;stroke-dasharray:5.0,5.0;" x1="132" x2="132" y1="148.2422" y2="1027.3398"/><line style="stroke:#181818;stroke-width:0.5;stroke-dasharray:5.0,5.0;" x1="297" x2="297" y1="148.2422" y2="1027.3398"/><line style="stroke:#181818;stroke-width:0.5;stroke-dasharray:5.0,5.0;" x1="414" x2="414" y1="148.2422" y2="1027.3398"/><text fill="#000000" font-family="sans-serif" font-size="14" lengthAdjust="spacing" textLength="31" x="5" y="145.2891">User</text><ellipse cx="23.5" cy="80.2539" fill="#E2E2F0" rx="8" ry="8" style="stroke:#181818;stroke-width:0.5;"/><path d="M23.5,88.2539 L23.5,115.2539 M10.5,96.2539 L36.5,96.2539 M23.5,115.2539 L10.5,130.2539 M23.5,115.2539 L36.5,130.2539 " fill="none" style="stroke:#181818;stroke-width:0.5;"/><rect fill="#E2E2F0" height="30.4883" rx="2.5" ry="2.5" style="stroke:#181818;stroke-width:0.5;" width="117" x="74" y="116.7539"/><text fill="#000000" font-family="sans-serif" font-size="14" lengthAdjust="spacing" textLength="103" x="81" y="137.2891">SourceAccount</text><rect fill="#E2E2F0" height="30.4883" rx="2.5" ry="2.5" style="stroke:#181818;stroke-width:0.5;" width="47" x="274" y="116.7539"/><text fill="#000000" font-family="sans-serif" font-size="14" lengthAdjust="spacing" textLength="33" x="281" y="137.2891">Saga</text><rect fill="#E2E2F0" height="30.4883" rx="2.5" ry="2.5" style="stroke:#181818;stroke-width:0.5;" width="115" x="357" y="116.7539"/><text fill="#000000" font-family="sans-serif" font-size="14" lengthAdjust="spacing" textLength="101" x="364" y="137.2891">TargetAccount</text><rect fill="#FFFFFF" height="36.6211" style="stroke:#181818;stroke-width:1.0;" width="10" x="18.5" y="158.2422"/><rect fill="#FFFFFF" height="249.8633" style="stroke:#181818;stroke-width:1.0;" width="10" x="127.5" y="194.8633"/><rect fill="#FFFFFF" height="28" style="stroke:#181818;stroke-width:1.0;" width="10" x="132.5" y="247.4844"/><rect fill="#FFFFFF" height="28" style="stroke:#181818;stroke-width:1.0;" width="10" x="132.5" y="335.1055"/><rect fill="#FFFFFF" height="110.6211" style="stroke:#181818;stroke-width:1.0;" width="10" x="127.5" y="632.9004"/><rect fill="#FFFFFF" height="28" style="stroke:#181818;stroke-width:1.0;" width="10" x="132.5" y="715.5215"/><rect fill="#FFFFFF" height="110.6211" style="stroke:#181818;stroke-width:1.0;" width="10" x="127.5" y="884.7188"/><rect fill="#FFFFFF" height="28" style="stroke:#181818;stroke-width:1.0;" width="10" x="132.5" y="967.3398"/><rect fill="#FFFFFF" height="74.6211" style="stroke:#181818;stroke-width:1.0;" width="10" x="292.5" y="414.7266"/><rect fill="#FFFFFF" height="104.6211" style="stroke:#181818;stroke-width:1.0;" width="10" x="292.5" y="558.2793"/><rect fill="#FFFFFF" height="104.6211" style="stroke:#181818;stroke-width:1.0;" width="10" x="292.5" y="810.0977"/><rect fill="#FFFFFF" height="98.9316" style="stroke:#181818;stroke-width:1.0;" width="10" x="409.5" y="489.3477"/><polygon fill="#181818" points="115.5,190.8633,125.5,194.8633,115.5,198.8633,119.5,194.8633" style="stroke:#181818;stroke-width:1.0;"/><line style="stroke:#181818;stroke-width:1.0;" x1="23.5" x2="121.5" y1="194.8633" y2="194.8633"/><text fill="#000000" font-family="sans-serif" font-size="13" lengthAdjust="spacing" textLength="16" x="30.5" y="182.4658">[1]</text><text fill="#000000" font-family="sans-serif" font-size="13" lengthAdjust="spacing" textLength="46" x="50.5" y="174.8105">Prepare</text><text fill="#000000" font-family="sans-serif" font-size="13" lengthAdjust="spacing" textLength="60" x="50.5" y="190.1211">(&#20934;&#22791;&#36716;&#36134;)</text><line style="stroke:#181818;stroke-width:1.0;" x1="142.5" x2="184.5" y1="239.4844" y2="239.4844"/><line style="stroke:#181818;stroke-width:1.0;" x1="184.5" x2="184.5" y1="239.4844" y2="252.4844"/><line style="stroke:#181818;stroke-width:1.0;" x1="143.5" x2="184.5" y1="252.4844" y2="252.4844"/><polygon fill="#181818" points="153.5,248.4844,143.5,252.4844,153.5,256.4844,149.5,252.4844" style="stroke:#181818;stroke-width:1.0;"/><text fill="#000000" font-family="sans-serif" font-size="13" lengthAdjust="spacing" textLength="16" x="149.5" y="227.0869">[2]</text><text fill="#000000" font-family="sans-serif" font-size="13" lengthAdjust="spacing" textLength="86" x="169.5" y="219.4316">CheckBalance</text><text fill="#000000" font-family="sans-serif" font-size="13" lengthAdjust="spacing" textLength="60" x="169.5" y="234.7422">(&#26657;&#39564;&#20313;&#39069;)</text><line style="stroke:#181818;stroke-width:1.0;" x1="142.5" x2="184.5" y1="327.1055" y2="327.1055"/><line style="stroke:#181818;stroke-width:1.0;" x1="184.5" x2="184.5" y1="327.1055" y2="340.1055"/><line style="stroke:#181818;stroke-width:1.0;" x1="143.5" x2="184.5" y1="340.1055" y2="340.1055"/><polygon fill="#181818" points="153.5,336.1055,143.5,340.1055,153.5,344.1055,149.5,340.1055" style="stroke:#181818;stroke-width:1.0;"/><text fill="#000000" font-family="sans-serif" font-size="13" lengthAdjust="spacing" textLength="16" x="149.5" y="314.708">[3]</text><text fill="#000000" font-family="sans-serif" font-size="13" lengthAdjust="spacing" textLength="80" x="169.5" y="307.0527">LockAmount</text><text fill="#000000" font-family="sans-serif" font-size="13" lengthAdjust="spacing" textLength="60" x="169.5" y="322.3633">(&#38145;&#23450;&#37329;&#39069;)</text><polygon fill="#181818" points="280.5,410.7266,290.5,414.7266,280.5,418.7266,284.5,414.7266" style="stroke:#181818;stroke-width:1.0;"/><line style="stroke:#181818;stroke-width:1.0;stroke-dasharray:2.0,2.0;" x1="137.5" x2="286.5" y1="414.7266" y2="414.7266"/><text fill="#000000" font-family="sans-serif" font-size="13" lengthAdjust="spacing" textLength="16" x="144.5" y="402.3291">[4]</text><text fill="#000000" font-family="sans-serif" font-size="13" lengthAdjust="spacing" textLength="54" x="164.5" y="394.6738">Prepared</text><text fill="#000000" font-family="sans-serif" font-size="13" lengthAdjust="spacing" textLength="99" x="164.5" y="409.9844">(&#36716;&#36134;&#24050;&#20934;&#22791;&#23601;&#32490;)</text><polygon fill="#181818" points="397.5,485.3477,407.5,489.3477,397.5,493.3477,401.5,489.3477" style="stroke:#181818;stroke-width:1.0;"/><line style="stroke:#181818;stroke-width:1.0;" x1="297.5" x2="403.5" y1="489.3477" y2="489.3477"/><text fill="#000000" font-family="sans-serif" font-size="13" lengthAdjust="spacing" textLength="16" x="304.5" y="476.9502">[5]</text><text fill="#000000" font-family="sans-serif" font-size="13" lengthAdjust="spacing" textLength="32" x="324.5" y="469.2949">Entry</text><text fill="#000000" font-family="sans-serif" font-size="13" lengthAdjust="spacing" textLength="34" x="324.5" y="484.6055">(&#20837;&#36134;)</text><path d="M64,504.3477 L126,504.3477 L126,511.6582 L116,521.6582 L64,521.6582 L64,504.3477 " fill="#EEEEEE" style="stroke:#000000;stroke-width:1.5;"/><rect fill="none" height="505.9922" style="stroke:#000000;stroke-width:1.5;" width="418" x="64" y="504.3477"/><text fill="#000000" font-family="sans-serif" font-size="13" font-weight="bold" lengthAdjust="spacing" textLength="17" x="79" y="517.916">alt</text><text fill="#000000" font-family="sans-serif" font-size="11" font-weight="bold" lengthAdjust="spacing" textLength="106" x="141" y="516.9824">[success&#65306;&#20837;&#36134;&#25104;&#21151;]</text><polygon fill="#181818" points="313.5,554.2793,303.5,558.2793,313.5,562.2793,309.5,558.2793" style="stroke:#181818;stroke-width:1.0;"/><line style="stroke:#181818;stroke-width:1.0;" x1="307.5" x2="408.5" y1="558.2793" y2="558.2793"/><text fill="#000000" font-family="sans-serif" font-size="13" lengthAdjust="spacing" textLength="16" x="319.5" y="545.8818">[6]</text><text fill="#000000" font-family="sans-serif" font-size="13" lengthAdjust="spacing" textLength="47" x="339.5" y="538.2266">Entered</text><text fill="#000000" font-family="sans-serif" font-size="13" lengthAdjust="spacing" textLength="47" x="339.5" y="553.5371">(&#24050;&#20837;&#36134;)</text><polygon fill="#181818" points="148.5,628.9004,138.5,632.9004,148.5,636.9004,144.5,632.9004" style="stroke:#181818;stroke-width:1.0;"/><line style="stroke:#181818;stroke-width:1.0;" x1="142.5" x2="291.5" y1="632.9004" y2="632.9004"/><text fill="#000000" font-family="sans-serif" font-size="13" lengthAdjust="spacing" textLength="16" x="154.5" y="620.5029">[7]</text><text fill="#000000" font-family="sans-serif" font-size="13" lengthAdjust="spacing" textLength="51" x="174.5" y="612.8477">Confirm</text><text fill="#000000" font-family="sans-serif" font-size="13" lengthAdjust="spacing" textLength="60" x="174.5" y="628.1582">(&#30830;&#35748;&#36716;&#36134;)</text><line style="stroke:#181818;stroke-width:1.0;" x1="142.5" x2="184.5" y1="707.5215" y2="707.5215"/><line style="stroke:#181818;stroke-width:1.0;" x1="184.5" x2="184.5" y1="707.5215" y2="720.5215"/><line style="stroke:#181818;stroke-width:1.0;" x1="143.5" x2="184.5" y1="720.5215" y2="720.5215"/><polygon fill="#181818" points="153.5,716.5215,143.5,720.5215,153.5,724.5215,149.5,720.5215" style="stroke:#181818;stroke-width:1.0;"/><text fill="#000000" font-family="sans-serif" font-size="13" lengthAdjust="spacing" textLength="16" x="149.5" y="695.124">[8]</text><text fill="#000000" font-family="sans-serif" font-size="13" lengthAdjust="spacing" textLength="66" x="169.5" y="687.4688">Confirmed</text><text fill="#000000" font-family="sans-serif" font-size="13" lengthAdjust="spacing" textLength="73" x="169.5" y="702.7793">(&#36716;&#36134;&#24050;&#30830;&#35748;)</text><line style="stroke:#000000;stroke-width:1.0;stroke-dasharray:2.0,2.0;" x1="64" x2="482" y1="759.5215" y2="759.5215"/><text fill="#000000" font-family="sans-serif" font-size="11" font-weight="bold" lengthAdjust="spacing" textLength="82" x="69" y="770.1563">[fail&#65306;&#20837;&#36134;&#22833;&#36133;]</text><polygon fill="#181818" points="313.5,806.0977,303.5,810.0977,313.5,814.0977,309.5,810.0977" style="stroke:#181818;stroke-width:1.0;"/><line style="stroke:#181818;stroke-width:1.0;" x1="307.5" x2="413.5" y1="810.0977" y2="810.0977"/><text fill="#000000" font-family="sans-serif" font-size="13" lengthAdjust="spacing" textLength="16" x="319.5" y="797.7002">[9]</text><text fill="#000000" font-family="sans-serif" font-size="13" lengthAdjust="spacing" textLength="69" x="339.5" y="790.0449">EntryFailed</text><text fill="#000000" font-family="sans-serif" font-size="13" lengthAdjust="spacing" textLength="60" x="339.5" y="805.3555">(&#20837;&#36134;&#22833;&#36133;)</text><polygon fill="#181818" points="148.5,880.7188,138.5,884.7188,148.5,888.7188,144.5,884.7188" style="stroke:#181818;stroke-width:1.0;"/><line style="stroke:#181818;stroke-width:1.0;" x1="142.5" x2="291.5" y1="884.7188" y2="884.7188"/><text fill="#000000" font-family="sans-serif" font-size="13" lengthAdjust="spacing" textLength="24" x="154.5" y="872.3213">[10]</text><text fill="#000000" font-family="sans-serif" font-size="13" lengthAdjust="spacing" textLength="94" x="182.5" y="864.666">UnlockAmount</text><text fill="#000000" font-family="sans-serif" font-size="13" lengthAdjust="spacing" textLength="60" x="182.5" y="879.9766">(&#35299;&#38145;&#37329;&#39069;)</text><line style="stroke:#181818;stroke-width:1.0;" x1="142.5" x2="184.5" y1="959.3398" y2="959.3398"/><line style="stroke:#181818;stroke-width:1.0;" x1="184.5" x2="184.5" y1="959.3398" y2="972.3398"/><line style="stroke:#181818;stroke-width:1.0;" x1="143.5" x2="184.5" y1="972.3398" y2="972.3398"/><polygon fill="#181818" points="153.5,968.3398,143.5,972.3398,153.5,976.3398,149.5,972.3398" style="stroke:#181818;stroke-width:1.0;"/><text fill="#000000" font-family="sans-serif" font-size="13" lengthAdjust="spacing" textLength="24" x="149.5" y="946.9424">[11]</text><text fill="#000000" font-family="sans-serif" font-size="13" lengthAdjust="spacing" textLength="109" x="177.5" y="939.2871">AmountUnlocked</text><text fill="#000000" font-family="sans-serif" font-size="13" lengthAdjust="spacing" textLength="73" x="177.5" y="954.5977">(&#37329;&#39069;&#24050;&#35299;&#38145;)</text><a href="https://github.com/Ahoo-Wang/Wow" target="_top" title="https://github.com/Ahoo-Wang/Wow" xlink:actuate="onRequest" xlink:href="https://github.com/Ahoo-Wang/Wow" xlink:show="new" xlink:title="https://github.com/Ahoo-Wang/Wow" xlink:type="simple"><text fill="#808080" font-family="sans-serif" font-size="10" lengthAdjust="spacing" text-decoration="underline" textLength="183" x="308" y="14.668">https://github.com/Ahoo-Wang/Wow</text></a><a href="https://github.com/Ahoo-Wang/Wow" target="_top" title="https://github.com/Ahoo-Wang/Wow" xlink:actuate="onRequest" xlink:href="https://github.com/Ahoo-Wang/Wow" xlink:show="new" xlink:title="https://github.com/Ahoo-Wang/Wow" xlink:type="simple"><text fill="#808080" font-family="sans-serif" font-size="10" lengthAdjust="spacing" text-decoration="underline" textLength="183" x="154" y="1028.0078">https://github.com/Ahoo-Wang/Wow</text></a><!--SRC=[bP8_ImCn6CRtV8hef1mdpWv25PqKXDP97M8khKTpISabO4S7hOY3Wek2-Ayg52agWeFwRRpsElaLJ2uzwPqLTJh8lSylp_Ey6V4PfieZaA8wLtAYfW8Af2yf0IM1M5WcOabmJC9m4J5K8GAC5L45ZGF2F6ZdDdmjBtCkr_ac00XBBk1og2ThI4WV-pN492no9J0fOCmLaza_6fSvA25H8J8THKfofe9r8k3eokJQA026xJZs2ztfB1gwhkF0ARWaY6OIkCh6eiPEr6p4RtVnqyquo4tdv8xZkbezkq5mTGPHn722w9nVz5hxxs_7lSlJFo8MEAuMWcH20tf7Mr7xfDSu70Om15t2e6_FYApbwFdH9eZk7xelhPpQTO7H6XUPtj8UvfWKzQI5xUiaFw8IXWgRZNwydjZJpkv1j7S6Se3KLH97SqZVbZ7KXwLNPmEb9N9MzaLW9DsBTjnk_cy5LfrhmeA-Tq1egDyWykbNfgZv43zT_vP9rEUrg9zhGFTBj6L6C-kDRw_qXdzOx_1yLcn1zduhro4jRKX8vdq2]--></g></svg>