<?xml version="1.0" encoding="us-ascii" standalone="no"?>
<svg xmlns="http://www.w3.org/2000/svg" xmlns:xlink="http://www.w3.org/1999/xlink" contentStyleType="text/css"
     height="1591px" preserveAspectRatio="none" style="width:775px;height:1591px;background:#FFFFFF;" version="1.1"
     viewBox="0 0 775 1591" width="775px" zoomAndPan="magnify">
    <defs/>
    <g>
        <a href="https://github.com/Ahoo-Wang/Wow" target="_top" title="https://github.com/Ahoo-Wang/Wow"
           xlink:actuate="onRequest" xlink:href="https://github.com/Ahoo-Wang/Wow" xlink:show="new"
           xlink:title="https://github.com/Ahoo-Wang/Wow" xlink:type="simple">
            <text fill="#808080" font-family="sans-serif" font-size="10" lengthAdjust="spacing"
                  text-decoration="underline" textLength="183" x="578.43" y="9.668">https://github.com/Ahoo-Wang/Wow
            </text>
        </a>
        <text fill="#000000" font-family="sans-serif" font-size="14" font-weight="bold" lengthAdjust="spacing"
              textLength="207" x="277.215" y="36.3125">Event Compensation Control
        </text><!--cluster Query-->
        <g id="cluster_Query">
            <path d="M125.5,634.2656 L169.5,634.2656 A3.75,3.75 0 0 1 172,636.7656 L179,656.7539 L652.93,656.7539 A2.5,2.5 0 0 1 655.43,659.2539 L655.43,1562.7656 A2.5,2.5 0 0 1 652.93,1565.2656 L125.5,1565.2656 A2.5,2.5 0 0 1 123,1562.7656 L123,636.7656 A2.5,2.5 0 0 1 125.5,634.2656 "
                  fill="none" style="stroke:#000000;stroke-width:1.5;"/>
            <line style="stroke:#000000;stroke-width:1.5;" x1="123" x2="179" y1="656.7539" y2="656.7539"/>
            <text fill="#000000" font-family="sans-serif" font-size="14" font-weight="bold" lengthAdjust="spacing"
                  textLength="43" x="127" y="649.8008">Query
            </text>
        </g><!--cluster Command-->
        <g id="cluster_Command">
            <path d="M263.16,56.2656 L337.16,56.2656 A3.75,3.75 0 0 1 339.66,58.7656 L346.66,78.7539 L515.26,78.7539 A2.5,2.5 0 0 1 517.76,81.2539 L517.76,607.7656 A2.5,2.5 0 0 1 515.26,610.2656 L263.16,610.2656 A2.5,2.5 0 0 1 260.66,607.7656 L260.66,58.7656 A2.5,2.5 0 0 1 263.16,56.2656 "
                  fill="none" style="stroke:#000000;stroke-width:1.5;"/>
            <line style="stroke:#000000;stroke-width:1.5;" x1="260.66" x2="346.66" y1="78.7539" y2="78.7539"/>
            <text fill="#000000" font-family="sans-serif" font-size="14" font-weight="bold" lengthAdjust="spacing"
                  textLength="73" x="264.66" y="71.8008">Command
            </text>
        </g>
        <g id="elem_FindNextRetry">
            <ellipse cx="389.2134" cy="743.2687" fill="#F1F1F1" rx="250.2134" ry="74.4431"
                     style="stroke:#181818;stroke-width:0.5;"/>
            <text fill="#000000" font-family="sans-serif" font-size="14" lengthAdjust="spacing" textLength="97"
                  x="330.3843" y="686.8663">FindNextRetry
            </text>
            <line style="stroke:#181818;stroke-width:1.0;" x1="216.0512" x2="562.3756" y1="689.8194" y2="689.8194"/>
            <text fill="#000000" font-family="sans-serif" font-size="14" lengthAdjust="spacing" textLength="212"
                  x="272.8843" y="707.3546">recoverable!=UNRECOVERABLE
            </text>
            <line style="stroke:#181818;stroke-width:1.0;" x1="159.7112" x2="618.7157" y1="714.3077" y2="714.3077"/>
            <text fill="#000000" font-family="sans-serif" font-size="14" lengthAdjust="spacing" textLength="246"
                  x="255.8843" y="731.8428">!SUCCEEDED &amp;&amp; retries&lt;maxRetries
            </text>
            <line style="stroke:#181818;stroke-width:1.0;" x1="140.452" x2="637.9748" y1="738.796" y2="738.796"/>
            <text fill="#000000" font-family="sans-serif" font-size="14" lengthAdjust="spacing" textLength="214"
                  x="271.8843" y="756.3311">&amp;&amp; nextRetryAt&lt;=CurrentTime
            </text>
            <line style="stroke:#181818;stroke-width:1.0;" x1="149.2138" x2="629.2131" y1="763.2842" y2="763.2842"/>
            <text fill="#000000" font-family="sans-serif" font-size="14" lengthAdjust="spacing" textLength="384"
                  x="186.8843" y="780.8194">&amp;&amp; (FAILED || (PREPARED &amp;&amp; timeoutAt&lt;=CurrentTime))
            </text>
        </g>
        <g id="elem_FindExecuting">
            <ellipse cx="389.2065" cy="886.2609" fill="#F1F1F1" rx="157.7265" ry="33.9453"
                     style="stroke:#181818;stroke-width:0.5;"/>
            <text fill="#000000" font-family="sans-serif" font-size="14" lengthAdjust="spacing" textLength="98"
                  x="338.1003" y="870.0407">FindExecuting
            </text>
            <line style="stroke:#181818;stroke-width:1.0;" x1="245.0256" x2="533.3873" y1="872.9938" y2="872.9938"/>
            <text fill="#000000" font-family="sans-serif" font-size="14" lengthAdjust="spacing" textLength="272"
                  x="251.1003" y="890.529">PREPARED &amp;&amp; timeoutAt &gt; CurrentTime
            </text>
        </g>
        <g id="elem_FindToRetry">
            <ellipse cx="389.2126" cy="1014.2616" fill="#F1F1F1" rx="249.4226" ry="58.976"
                     style="stroke:#181818;stroke-width:0.5;"/>
            <text fill="#000000" font-family="sans-serif" font-size="14" lengthAdjust="spacing" textLength="83"
                  x="335.4856" y="972.6205">FindToRetry
            </text>
            <line style="stroke:#181818;stroke-width:1.0;" x1="201.957" x2="576.4682" y1="975.5737" y2="975.5737"/>
            <text fill="#000000" font-family="sans-serif" font-size="14" lengthAdjust="spacing" textLength="212"
                  x="270.9856" y="993.1088">recoverable!=UNRECOVERABLE
            </text>
            <line style="stroke:#181818;stroke-width:1.0;" x1="148.1275" x2="630.2978" y1="1000.062" y2="1000.062"/>
            <text fill="#000000" font-family="sans-serif" font-size="14" lengthAdjust="spacing" textLength="246"
                  x="253.9856" y="1017.5971">!SUCCEEDED &amp;&amp; retries&lt;maxRetries
            </text>
            <line style="stroke:#181818;stroke-width:1.0;" x1="144.6148" x2="633.8104" y1="1024.5502" y2="1024.5502"/>
            <text fill="#000000" font-family="sans-serif" font-size="14" lengthAdjust="spacing" textLength="384"
                  x="184.9856" y="1042.0854">&amp;&amp; (FAILED || (PREPARED &amp;&amp; timeoutAt&lt;=CurrentTime))
            </text>
        </g>
        <g id="elem_FindNonRetryable">
            <ellipse cx="389.2121" cy="1166.265" fill="#F1F1F1" rx="140.3321" ry="58.1493"
                     style="stroke:#181818;stroke-width:0.5;"/>
            <text fill="#000000" font-family="sans-serif" font-size="14" lengthAdjust="spacing" textLength="122"
                  x="327.0187" y="1130.0834">FindNonRetryable
            </text>
            <line style="stroke:#181818;stroke-width:1.0;" x1="275.0488" x2="503.3755" y1="1133.0365" y2="1133.0365"/>
            <text fill="#000000" font-family="sans-serif" font-size="14" lengthAdjust="spacing" textLength="212"
                  x="282.0187" y="1150.5716">recoverable!=UNRECOVERABLE
            </text>
            <line style="stroke:#181818;stroke-width:1.0;" x1="251.4742" x2="526.95" y1="1157.5248" y2="1157.5248"/>
            <text fill="#000000" font-family="sans-serif" font-size="14" lengthAdjust="spacing" textLength="86"
                  x="345.0187" y="1175.0599">!SUCCEEDED
            </text>
            <line style="stroke:#181818;stroke-width:1.0;" x1="255.1243" x2="523.3" y1="1182.013" y2="1182.013"/>
            <text fill="#000000" font-family="sans-serif" font-size="14" lengthAdjust="spacing" textLength="167"
                  x="304.5187" y="1199.5482">&amp;&amp; retries&gt;=maxRetries
            </text>
        </g>
        <g id="elem_FindSuccess">
            <ellipse cx="389.2086" cy="1291.2643" fill="#F1F1F1" rx="69.9986" ry="31.8987"
                     style="stroke:#181818;stroke-width:0.5;"/>
            <text fill="#000000" font-family="sans-serif" font-size="14" lengthAdjust="spacing" textLength="83"
                  x="347.9586" y="1282.3112">FindSuccess
            </text>
            <line style="stroke:#181818;stroke-width:1.0;" x1="321.4594" x2="456.9578" y1="1285.2643" y2="1285.2643"/>
            <text fill="#000000" font-family="sans-serif" font-size="14" lengthAdjust="spacing" textLength="82"
                  x="348.4586" y="1302.7994">SUCCEEDED
            </text>
        </g>
        <g id="elem_FindUnrecoverable">
            <ellipse cx="389.2074" cy="1389.2631" fill="#F1F1F1" rx="143.0874" ry="31.0175"
                     style="stroke:#181818;stroke-width:0.5;"/>
            <text fill="#000000" font-family="sans-serif" font-size="14" lengthAdjust="spacing" textLength="129"
                  x="311.8" y="1378.8997">FindUnrecoverable
            </text>
            <line style="stroke:#181818;stroke-width:1.0;" x1="251.2635" x2="527.1512" y1="1381.8528" y2="1381.8528"/>
            <text fill="#000000" font-family="sans-serif" font-size="14" lengthAdjust="spacing" textLength="219"
                  x="266.8" y="1399.3879">recoverable==UNRECOVERABLE
            </text>
        </g>
        <g id="elem_Detail">
            <ellipse cx="389.2124" cy="1470.2646" fill="#F1F1F1" rx="39.0624" ry="14.659"
                     style="stroke:#181818;stroke-width:0.5;"/>
            <text fill="#000000" font-family="sans-serif" font-size="14" lengthAdjust="spacing" textLength="39"
                  x="369.7124" y="1473.5556">Detail
            </text>
        </g>
        <g id="elem_History">
            <ellipse cx="389.2072" cy="1534.2703" fill="#F1F1F1" rx="45.4472" ry="14.6647"
                     style="stroke:#181818;stroke-width:0.5;"/>
            <text fill="#000000" font-family="sans-serif" font-size="14" lengthAdjust="spacing" textLength="48"
                  x="364.2668" y="1537.8198">History
            </text>
        </g>
        <g id="elem_CreateExecutionFailed">
            <ellipse cx="389.2123" cy="192.2701" fill="#F1F1F1" rx="95.6723" ry="21.5345"
                     style="stroke:#181818;stroke-width:0.5;"/>
            <text fill="#000000" font-family="sans-serif" font-size="14" lengthAdjust="spacing" textLength="154"
                  x="312.2123" y="195.5611">CreateExecutionFailed
            </text>
        </g>
        <g id="elem_PrepareCompensation">
            <ellipse cx="389.2147" cy="501.2706" fill="#F1F1F1" rx="95.2247" ry="21.4449"
                     style="stroke:#181818;stroke-width:0.5;"/>
            <text fill="#000000" font-family="sans-serif" font-size="14" lengthAdjust="spacing" textLength="153"
                  x="312.7147" y="504.5616">PrepareCompensation
            </text>
        </g>
        <g id="elem_ForcePrepareCompensation">
            <ellipse cx="389.2109" cy="273.2658" fill="#F1F1F1" rx="112.5509" ry="24.9102"
                     style="stroke:#181818;stroke-width:0.5;"/>
            <text fill="#000000" font-family="sans-serif" font-size="14" lengthAdjust="spacing" textLength="191"
                  x="293.7109" y="276.5568">ForcePrepareCompensation
            </text>
        </g>
        <g id="elem_ApplyExecutionFailed">
            <ellipse cx="389.2053" cy="354.2647" fill="#F1F1F1" rx="92.9953" ry="20.9991"
                     style="stroke:#181818;stroke-width:0.5;"/>
            <text fill="#000000" font-family="sans-serif" font-size="14" lengthAdjust="spacing" textLength="148"
                  x="315.2053" y="357.5557">ApplyExecutionFailed
            </text>
        </g>
        <g id="elem_ApplyRetrySpec">
            <ellipse cx="389.2132" cy="427.2703" fill="#F1F1F1" rx="74.9732" ry="17.3946"
                     style="stroke:#181818;stroke-width:0.5;"/>
            <text fill="#000000" font-family="sans-serif" font-size="14" lengthAdjust="spacing" textLength="106"
                  x="336.2132" y="430.5613">ApplyRetrySpec
            </text>
        </g>
        <g id="elem_ApplyExecutionSuccess">
            <ellipse cx="389.2085" cy="113.2693" fill="#F1F1F1" rx="98.3685" ry="22.0737"
                     style="stroke:#181818;stroke-width:0.5;"/>
            <text fill="#000000" font-family="sans-serif" font-size="14" lengthAdjust="spacing" textLength="160"
                  x="309.2085" y="116.5603">ApplyExecutionSuccess
            </text>
        </g>
        <g id="elem_MarkRecoverable">
            <ellipse cx="389.2067" cy="576.265" fill="#F1F1F1" rx="79.5467" ry="18.3093"
                     style="stroke:#181818;stroke-width:0.5;"/>
            <text fill="#000000" font-family="sans-serif" font-size="14" lengthAdjust="spacing" textLength="117"
                  x="330.7067" y="579.556">MarkRecoverable
            </text>
        </g><!--entity Subscriber-->
        <g id="elem_Subscriber">
            <ellipse cx="42.5" cy="162.5256" fill="#F1F1F1" rx="8" ry="8" style="stroke:#181818;stroke-width:0.5;"/>
            <path d="M42.5,170.5256 L42.5,197.5256 M29.5,178.5256 L55.5,178.5256 M42.5,197.5256 L29.5,212.5256 M42.5,197.5256 L55.5,212.5256 "
                  fill="none" style="stroke:#181818;stroke-width:0.5;"/>
            <text fill="#000000" font-family="sans-serif" font-size="14" lengthAdjust="spacing" textLength="73" x="6"
                  y="227.5608">Subscriber
            </text>
        </g><!--entity Scheduler-->
        <g id="elem_Scheduler">
            <ellipse cx="42.5" cy="592.5256" fill="#F1F1F1" rx="8" ry="8" style="stroke:#181818;stroke-width:0.5;"/>
            <path d="M42.5,600.5256 L42.5,627.5256 M29.5,608.5256 L55.5,608.5256 M42.5,627.5256 L29.5,642.5256 M42.5,627.5256 L55.5,642.5256 "
                  fill="none" style="stroke:#181818;stroke-width:0.5;"/>
            <text fill="#000000" font-family="sans-serif" font-size="14" lengthAdjust="spacing" textLength="68" x="8.5"
                  y="657.5608">Scheduler
            </text>
        </g><!--entity Developer-->
        <g id="elem_Developer">
            <ellipse cx="733.93" cy="920.5256" fill="#F1F1F1" rx="8" ry="8" style="stroke:#181818;stroke-width:0.5;"/>
            <path d="M733.93,928.5256 L733.93,955.5256 M720.93,936.5256 L746.93,936.5256 M733.93,955.5256 L720.93,970.5256 M733.93,955.5256 L746.93,970.5256 "
                  fill="none" style="stroke:#181818;stroke-width:0.5;"/>
            <text fill="#000000" font-family="sans-serif" font-size="14" lengthAdjust="spacing" textLength="69"
                  x="699.43" y="985.5608">Developer
            </text>
        </g><!--link Subscriber to CreateExecutionFailed-->
        <g id="link_Subscriber_CreateExecutionFailed">
            <path d="M79.41,192.2656 C129.6,192.2656 216.49,192.2656 287.33,192.2656 " fill="none"
                  id="Subscriber-to-CreateExecutionFailed" style="stroke:#181818;stroke-width:1.0;"/>
            <polygon fill="#181818"
                     points="293.33,192.2656,284.33,188.2656,288.33,192.2656,284.33,196.2656,293.33,192.2656"
                     style="stroke:#181818;stroke-width:1.0;"/>
        </g><!--link Subscriber to ApplyExecutionFailed-->
        <g id="link_Subscriber_ApplyExecutionFailed">
            <path d="M55.65,230.8756 C66.57,258.9556 85.5,295.3856 115,315.2656 C169.04,351.6856 236.77,360.3968 294.02,360.5768 "
                  fill="none" id="Subscriber-to-ApplyExecutionFailed" style="stroke:#181818;stroke-width:1.0;"/>
            <polygon fill="#181818"
                     points="300.02,360.5956,291.0326,356.5673,295.02,360.5799,291.0075,364.5673,300.02,360.5956"
                     style="stroke:#181818;stroke-width:1.0;"/>
        </g><!--link Subscriber to ApplyExecutionSuccess-->
        <g id="link_Subscriber_ApplyExecutionSuccess">
            <path d="M79.48,169.4256 C90.51,163.3156 102.93,157.2956 115,153.2656 C172.63,134.0156 234.198,124.6049 287.708,119.4149 "
                  fill="none" id="Subscriber-to-ApplyExecutionSuccess" style="stroke:#181818;stroke-width:1.0;"/>
            <polygon fill="#181818"
                     points="293.68,118.8356,284.3359,115.7232,288.7034,119.3183,285.1082,123.6858,293.68,118.8356"
                     style="stroke:#181818;stroke-width:1.0;"/>
        </g><!--link Scheduler to FindNextRetry-->
        <g id="link_Scheduler_FindNextRetry">
            <path d="M76.87,633.9756 C112.01,646.3156 164.3184,664.6791 220.7784,684.4891 " fill="none"
                  id="Scheduler-to-FindNextRetry" style="stroke:#181818;stroke-width:1.0;"/>
            <polygon fill="#181818"
                     points="226.44,686.4756,219.2719,679.7215,221.722,684.8202,216.6233,687.2703,226.44,686.4756"
                     style="stroke:#181818;stroke-width:1.0;"/>
        </g><!--link Scheduler to PrepareCompensation-->
        <g id="link_Scheduler_PrepareCompensation">
            <path d="M67.95,583.6256 C80.12,567.6256 96.25,550.4556 115,540.2656 C169.62,510.5856 233.0651,501.2222 288.2651,498.9522 "
                  fill="none" id="Scheduler-to-PrepareCompensation" style="stroke:#181818;stroke-width:1.0;"/>
            <polygon fill="#181818"
                     points="294.26,498.7056,285.1032,495.0788,289.2642,498.9111,285.432,503.072,294.26,498.7056"
                     style="stroke:#181818;stroke-width:1.0;"/>
        </g><!--reverse link FindToRetry to Developer-->
        <g id="link_FindToRetry_Developer">
            <path d="M591.988,976.5839 C635.778,968.4039 671.48,961.7456 699.15,956.5756 " fill="none"
                  id="FindToRetry-backto-Developer" style="stroke:#181818;stroke-width:1.0;"/>
            <polygon fill="#181818"
                     points="586.09,977.6856,595.6715,979.965,591.005,976.7675,594.2025,972.101,586.09,977.6856"
                     style="stroke:#181818;stroke-width:1.0;"/>
        </g><!--reverse link FindExecuting to Developer-->
        <g id="link_FindExecuting_Developer">
            <path d="M515.498,909.6573 C582.528,922.1773 655.38,935.7856 699.18,943.9656 " fill="none"
                  id="FindExecuting-backto-Developer" style="stroke:#181818;stroke-width:1.0;"/>
            <polygon fill="#181818"
                     points="509.6,908.5556,517.7126,914.1401,514.515,909.4737,519.1814,906.2761,509.6,908.5556"
                     style="stroke:#181818;stroke-width:1.0;"/>
        </g><!--reverse link PrepareCompensation to Developer-->
        <g id="link_PrepareCompensation_Developer">
            <path d="M476.1169,489.2687 C537.2069,485.2187 613.23,491.3656 663.43,540.2656 C715.98,591.4656 728.89,819.8056 731.98,911.7356 "
                  fill="none" id="PrepareCompensation-backto-Developer" style="stroke:#181818;stroke-width:1.0;"/>
            <polygon fill="#181818"
                     points="470.13,489.6656,479.3749,493.0615,475.119,489.3349,478.8457,485.079,470.13,489.6656"
                     style="stroke:#181818;stroke-width:1.0;"/>
        </g><!--reverse link ForcePrepareCompensation to Developer-->
        <g id="link_ForcePrepareCompensation_Developer">
            <path d="M495.2889,261.3725 C554.1289,260.2625 619.59,270.3256 663.43,316.2656 C704.7,359.5256 725.8,781.1356 731.39,911.8356 "
                  fill="none" id="ForcePrepareCompensation-backto-Developer" style="stroke:#181818;stroke-width:1.0;"/>
            <polygon fill="#181818"
                     points="489.29,261.4856,498.3638,265.3152,494.2891,261.3913,498.213,257.3166,489.29,261.4856"
                     style="stroke:#181818;stroke-width:1.0;"/>
        </g><!--reverse link MarkRecoverable to Developer-->
        <g id="link_MarkRecoverable_Developer">
            <path d="M474.7466,578.2553 C536.1266,583.6953 613.19,600.7256 663.43,653.2656 C698.7,690.1556 720.25,839.8656 728.75,911.5856 "
                  fill="none" id="MarkRecoverable-backto-Developer" style="stroke:#181818;stroke-width:1.0;"/>
            <polygon fill="#181818"
                     points="468.77,577.7256,477.3817,582.5045,473.7505,578.167,478.088,574.5358,468.77,577.7256"
                     style="stroke:#181818;stroke-width:1.0;"/>
        </g><!--reverse link ApplyRetrySpec to Developer-->
        <g id="link_ApplyRetrySpec_Developer">
            <path d="M454.461,415.5504 C516.521,407.5704 607.41,407.0356 663.43,462.2656 C726.8,524.7556 733.07,807.8556 733.2,911.8256 "
                  fill="none" id="ApplyRetrySpec-backto-Developer" style="stroke:#181818;stroke-width:1.0;"/>
            <polygon fill="#181818"
                     points="448.51,416.3156,457.9466,419.1351,453.4692,415.6779,456.9264,411.2005,448.51,416.3156"
                     style="stroke:#181818;stroke-width:1.0;"/>
        </g><!--reverse link FindNonRetryable to Developer-->
        <g id="link_FindNonRetryable_Developer">
            <path d="M531.3536,1150.3385 C579.0836,1139.5985 624.62,1122.3356 663.43,1090.2656 C694.91,1064.2456 713.39,1020.4356 723.28,988.7456 "
                  fill="none" id="FindNonRetryable-backto-Developer" style="stroke:#181818;stroke-width:1.0;"/>
            <polygon fill="#181818"
                     points="525.5,1151.6556,535.1586,1153.5823,530.378,1150.558,533.4024,1145.7775,525.5,1151.6556"
                     style="stroke:#181818;stroke-width:1.0;"/>
        </g><!--reverse link FindSuccess to Developer-->
        <g id="link_FindSuccess_Developer">
            <path d="M463.9952,1298.5651 C525.5752,1301.0251 608.88,1293.8256 663.43,1242.2656 C699.88,1207.8056 720.81,1060.0656 728.95,988.8956 "
                  fill="none" id="FindSuccess-backto-Developer" style="stroke:#181818;stroke-width:1.0;"/>
            <polygon fill="#181818"
                     points="458,1298.3256,466.8332,1302.6817,462.996,1298.5252,467.1525,1294.6881,458,1298.3256"
                     style="stroke:#181818;stroke-width:1.0;"/>
        </g><!--reverse link Detail to Developer-->
        <g id="link_Detail_Developer">
            <path d="M429.1745,1478.9058 C486.5845,1489.8158 598.81,1501.2956 663.43,1438.2656 C727.14,1376.1156 733.2,1092.8056 733.23,988.7456 "
                  fill="none" id="Detail-backto-Developer" style="stroke:#181818;stroke-width:1.0;"/>
            <polygon fill="#181818"
                     points="423.28,1477.7856,431.375,1483.3956,428.1921,1478.7191,432.8685,1475.5362,423.28,1477.7856"
                     style="stroke:#181818;stroke-width:1.0;"/>
        </g><!--reverse link History to Developer-->
        <g id="link_History_Developer">
            <path d="M433.0199,1543.6869 C491.8399,1554.5669 600.68,1564.4656 663.43,1502.2656 C699.95,1466.0556 723.81,1107.9656 730.79,988.6856 "
                  fill="none" id="History-backto-Developer" style="stroke:#181818;stroke-width:1.0;"/>
            <polygon fill="#181818"
                     points="427.12,1542.5956,435.2423,1548.1659,432.0366,1543.5051,436.6974,1540.2993,427.12,1542.5956"
                     style="stroke:#181818;stroke-width:1.0;"/>
        </g>
        <a href="https://github.com/Ahoo-Wang/Wow" target="_top" title="https://github.com/Ahoo-Wang/Wow"
           xlink:actuate="onRequest" xlink:href="https://github.com/Ahoo-Wang/Wow" xlink:show="new"
           xlink:title="https://github.com/Ahoo-Wang/Wow" xlink:type="simple">
            <text fill="#808080" font-family="sans-serif" font-size="10" lengthAdjust="spacing"
                  text-decoration="underline" textLength="183" x="289.215" y="1580.9336">
                https://github.com/Ahoo-Wang/Wow
            </text>
        </a><!--SRC=[jLHDZzem4BtxLvWzh7OFz1S0KXg2McbBQLXwDywKjTQn8tyWecx_UxqX2ROJgAggNCACtyoyUVRCX0dARG6OarfQyw6o9KU66GueEu8mE9Lb1K8JmwHmXZ1ASWIYm6SGul33O2EnOeSNWmkcWBv34IBKI8MtTg-fOdjGdOE-G65vRo_X25nMpaOLeQ_a0FYR1LN_HDZzh0PADE0L4yKQJYO7esfCDBuBF0rsEcq-Ze0yWY9x3fFvRfrdwTVlMPvyVCfyr6IxIzCiMsPBV7_lOenYe6SbEUNdlpxM0KHNAJ6pUMgLSj8yin8YsCCg-VpaKhwzuOTDdcsI_9pVEAXJDmf-V6pYxWQTPYUWrZ1nw3ljFNx1qGfuWMD-mmBFCXIojV-xZ7-hpv3vMeg6wZkloplmdF_IGyIsRMSnl_Gp9BIrb8BMFPVMzbFr-OVHE-5nx7C4tYiDpKSQ2lClmH360zSdfjtCrUZNPTZSV9T45E6ufGg8WVRHIR5oUQ0841i55L7WRuUmEQae_0cKL1MlRrLf0CtLRYkWDs9zrJl45w9USqz7r_Hb6pb55rVQZ42Z96zYEZAettKDADnOuTcOKiYVrDbqwgtAS4c4PoEfukWhTnF18lsYq_1gHlW5apeyxkOcF3c_sSZPljhG-ni0]-->
    </g>
</svg>